<svg width="10" height="18" viewBox="0 0 10 18" fill="none" xmlns="http://www.w3.org/2000/svg">
<path d="M9.62352 7.99264L9.4089 9.73161C9.37339 10.0196 9.12943 10.2372 8.84379 10.2372H6.06456V17.5092C5.77119 17.5358 5.4732 17.5499 5.17211 17.5499C4.50201 17.5499 3.8458 17.4826 3.21584 17.3543V10.2372H1.07583C0.882825 10.2372 0.720703 10.0775 0.720703 9.87718V7.69838C0.720703 7.49803 0.882825 7.33838 1.07583 7.33838H3.21584V4.07331C3.21584 2.07295 4.80927 0.448242 6.77789 0.448242H9.2684C9.46603 0.448242 9.62661 0.612591 9.62661 0.808244V2.98704C9.62661 3.18739 9.46449 3.34704 9.2684 3.34704H7.4866C6.70378 3.34704 6.06456 3.99974 6.06456 4.80271V7.33994H9.05378C9.39964 7.33994 9.66675 7.64673 9.62352 7.99264Z" fill="white"/>
</svg>
