<svg width="10" height="18" viewBox="0 0 10 18" fill="none" xmlns="http://www.w3.org/2000/svg">
<path d="M9.62303 7.99264L9.40841 9.73161C9.3729 10.0196 9.12895 10.2372 8.8433 10.2372H6.06407V17.5092C5.7707 17.5358 5.47271 17.5499 5.17162 17.5499C4.50152 17.5499 3.84531 17.4826 3.21535 17.3543V10.2372H1.07534C0.882337 10.2372 0.720215 10.0775 0.720215 9.87718V7.69838C0.720215 7.49803 0.882337 7.33838 1.07534 7.33838H3.21535V4.07331C3.21535 2.07295 4.80878 0.448242 6.7774 0.448242H9.26791C9.46554 0.448242 9.62612 0.612591 9.62612 0.808244V2.98704C9.62612 3.18739 9.464 3.34704 9.26791 3.34704H7.48611C6.70329 3.34704 6.06407 3.99974 6.06407 4.80271V7.33994H9.05329C9.39915 7.33994 9.66626 7.64673 9.62303 7.99264Z" fill="black"/>
</svg>
