<svg width="14" height="14" viewBox="0 0 14 14" fill="none" xmlns="http://www.w3.org/2000/svg">
<path fill-rule="evenodd" clip-rule="evenodd" d="M12.4376 10.292C12.4376 11.588 11.3954 12.643 10.1185 12.643H3.6228C2.34435 12.643 1.30368 11.5865 1.30368 10.292V3.70712C1.30368 2.41111 2.34589 1.35615 3.6228 1.35615H10.1185C11.3969 1.35615 12.4376 2.41268 12.4376 3.70712V10.292ZM10.3485 0.180664H3.38965C1.60014 0.180664 0.142578 1.65354 0.142578 3.47234V10.5268C0.142578 12.3409 1.60014 13.8185 3.38965 13.8185H10.3485C12.1381 13.8185 13.5956 12.3409 13.5956 10.5268V3.47234C13.5956 1.65354 12.1381 0.180664 10.3485 0.180664ZM6.87402 9.35165C5.59558 9.35165 4.558 8.29512 4.558 7.00068C4.558 5.70624 5.59558 4.64971 6.87402 4.64971C8.15247 4.64971 9.19315 5.70624 9.19315 7.00068C9.19315 8.29512 8.15093 9.35165 6.87402 9.35165ZM6.87402 3.47266C4.95635 3.47266 3.39844 5.05197 3.39844 7.00068C3.39844 8.94939 4.95635 10.5287 6.87402 10.5287C8.7917 10.5287 10.3542 8.94939 10.3542 7.00068C10.3542 5.05197 8.79633 3.47266 6.87402 3.47266ZM9.88867 3.23619C9.88867 3.6275 10.2037 3.94211 10.585 3.94211C10.971 3.94211 11.2814 3.6275 11.2814 3.23619C11.2814 2.84488 10.9664 2.53027 10.585 2.53027C10.2037 2.53027 9.88867 2.84488 9.88867 3.23619Z" fill="white"/>
</svg>
