<svg width="13" height="16" viewBox="0 0 13 16" fill="none" xmlns="http://www.w3.org/2000/svg">
<path d="M8.71987 11.3503V4.90783C8.71987 4.90783 9.4332 6.11931 12.0241 6.18975C12.1599 6.19444 12.2773 6.08331 12.2773 5.94088V4.12208C12.2773 3.98434 12.1677 3.87791 12.0364 3.86852C10.0277 3.75269 9.07345 2.19216 8.97772 0.758409C8.96846 0.63006 8.85574 0.52832 8.7245 0.52832H6.67559C6.53972 0.52832 6.43009 0.639452 6.43009 0.777192V11.0169C6.43009 12.1298 5.59014 13.0971 4.49543 13.1503C3.24323 13.2082 2.22418 12.1173 2.37704 10.8291C2.48666 9.91969 3.20926 9.17464 4.10634 9.04942C4.28081 9.02281 4.45683 9.02281 4.62667 9.04003C4.7749 9.05725 4.90614 8.94299 4.90614 8.79116V6.96767C4.90614 6.83932 4.80578 6.72349 4.67917 6.7188C4.42131 6.70158 4.15883 6.70471 3.89172 6.73601C1.91846 6.96297 0.325032 8.58142 0.105781 10.5865C-0.182951 13.2301 1.84744 15.4669 4.39507 15.4669C6.78521 15.4669 8.71987 13.5056 8.71987 11.0873V11.344V11.3503Z" fill="black"/>
</svg>
