<svg width="13" height="16" viewBox="0 0 13 16" fill="none" xmlns="http://www.w3.org/2000/svg">
<path d="M8.71963 11.3503V4.90783C8.71963 4.90783 9.43296 6.11931 12.0238 6.18975C12.1597 6.19444 12.277 6.08331 12.277 5.94088V4.12208C12.277 3.98434 12.1674 3.87791 12.0362 3.86852C10.0274 3.75269 9.0732 2.19216 8.97748 0.758409C8.96821 0.63006 8.8555 0.52832 8.72425 0.52832H6.67535C6.53947 0.52832 6.42984 0.639452 6.42984 0.777192V11.0169C6.42984 12.1298 5.58989 13.0971 4.49518 13.1503C3.24298 13.2082 2.22393 12.1173 2.37679 10.8291C2.48642 9.91969 3.20902 9.17464 4.1061 9.04942C4.28057 9.02281 4.45659 9.02281 4.62643 9.04003C4.77466 9.05725 4.9059 8.94299 4.9059 8.79116V6.96767C4.9059 6.83932 4.80553 6.72349 4.67892 6.7188C4.42107 6.70158 4.15859 6.70471 3.89148 6.73601C1.91822 6.96297 0.324787 8.58142 0.105537 10.5865C-0.183195 13.2301 1.8472 15.4669 4.39483 15.4669C6.78497 15.4669 8.71963 13.5056 8.71963 11.0873V11.344V11.3503Z" fill="white"/>
</svg>
