<svg width="17" height="20" viewBox="0 0 17 20" fill="none" xmlns="http://www.w3.org/2000/svg">
<g clip-path="url(#clip0_395_2687)">
<path d="M8.98713 0C9.21519 0.0503182 9.44606 0.0887968 9.6713 0.153914C11.6478 0.725174 12.9063 2.06601 13.3315 4.16457C13.7059 6.00858 13.1879 7.62765 11.8955 8.93592C10.7919 10.0548 9.44606 10.5313 7.92287 10.33C6.19697 10.1021 4.89902 9.15495 4.1135 7.52405C3.26603 5.76291 3.3702 4.00178 4.3866 2.34424C5.16086 1.08628 6.28425 0.331508 7.70045 0.0739973C7.80744 0.056238 7.91442 0.0236791 8.02141 0C8.34238 0 8.66335 0 8.98713 0Z" fill="white"/>
<path d="M8.49152 19.9998C6.33485 19.9643 4.37807 19.3072 2.64936 17.9545C1.61888 17.1494 0.757338 16.1667 0.0900644 15.0065C-0.0112937 14.8318 -0.0281867 14.6542 0.0562784 14.4707C0.909375 12.6001 2.28334 11.3954 4.19507 10.8774C4.42031 10.8152 4.65399 10.7708 4.88768 10.7472C5.14952 10.7205 5.35787 10.8744 5.5634 11.0224C6.41086 11.6381 7.35406 11.9459 8.3789 11.9755C9.42345 12.0051 10.4201 11.7624 11.2761 11.132C11.7688 10.7679 12.239 10.7116 12.7908 10.8596C14.1732 11.2326 15.3247 11.9814 16.1947 13.1713C16.4791 13.5591 16.6959 14.0031 16.938 14.4204C17.045 14.6039 17.0253 14.7785 16.9127 14.965C15.9526 16.5989 14.68 17.8894 13.0667 18.7892C11.994 19.3871 10.8537 19.7689 9.64025 19.8962C9.26015 19.9376 8.87724 19.9643 8.49434 19.9968L8.49152 19.9998Z" fill="white"/>
</g>
<defs>
<clipPath id="clip0_395_2687">
<rect width="17" height="20" fill="white"/>
</clipPath>
</defs>
</svg>
