<svg width="79" height="84" viewBox="0 0 79 84" fill="none" xmlns="http://www.w3.org/2000/svg">
<g clip-path="url(#clip0_209_1206)">
<path d="M42.6613 18.6851C42.5844 18.9217 42.5076 19.1693 42.4911 19.4169C41.4483 23.8626 40.3891 28.3247 39.3627 32.7814H46.0531C45.0103 28.3688 43.9236 23.9561 42.8808 19.538C42.8314 19.2408 42.7546 18.9602 42.6613 18.6796V18.6851ZM37.2277 13.2876C40.8665 13.2876 44.4944 13.2711 48.1332 13.2876C51.3988 24.2037 54.6973 35.0923 57.9629 46.0084C55.1913 45.9919 52.4086 46.0084 49.637 45.9919C49.0004 43.6975 48.3637 41.4197 47.7216 39.1308C47.6612 39.0373 47.6886 38.8007 47.5185 38.8667C44.2968 38.8502 41.0751 38.8667 37.8424 38.8667C37.2332 41.2381 36.6295 43.6095 36.0368 45.9919C33.331 46.0084 30.6087 46.0084 27.8975 45.9919C31.0094 35.0923 34.1213 24.1872 37.2168 13.2876H37.2277Z" fill="white"/>
<path d="M27.8315 65.7712C28.8414 64.8689 30.2409 64.5553 31.5636 64.5883C32.7766 64.6048 34.0828 64.8854 34.9994 65.7437C35.7787 66.459 36.119 67.5209 36.1519 68.5498H33.287C33.254 67.939 32.9906 67.2733 32.3979 67.0037C31.6185 66.6736 30.5757 66.7561 29.9884 67.4273C29.6317 67.862 29.5055 68.4397 29.5055 69.0009V72.9954C29.5055 73.5401 29.5549 74.1178 29.8622 74.602C30.1421 75.0862 30.7019 75.3503 31.2453 75.3833C31.8051 75.4163 32.4253 75.3228 32.8314 74.8991C33.1717 74.5415 33.265 74.0078 33.3144 73.5291H36.1903C36.13 74.6075 35.8007 75.7299 34.9939 76.4617C34.0608 77.3641 32.7052 77.6172 31.4484 77.6172C30.1092 77.6502 28.7097 77.276 27.7327 76.3242C26.8436 75.4659 26.41 74.2169 26.3935 73.0009C26.3771 71.7354 26.3935 70.4755 26.3935 69.21C26.41 67.9445 26.8601 66.635 27.826 65.7767L27.8315 65.7712Z" fill="white"/>
<path d="M42.5515 66.9378C42.1289 68.7149 41.7283 70.4921 41.3057 72.2693C42.1454 72.2858 42.9851 72.2858 43.8413 72.2693C43.4077 70.4921 42.9687 68.7149 42.5515 66.9378ZM40.4989 64.8965H44.6371C45.8665 69.0285 47.1124 73.1606 48.3528 77.2981C47.2935 77.3146 46.2507 77.3146 45.197 77.2981C44.95 76.3958 44.681 75.488 44.4341 74.5856H40.7294C40.4934 75.488 40.2793 76.4123 40.0433 77.2981C39.017 77.2981 37.9907 77.3146 36.9644 77.2981C38.1334 73.1661 39.3299 69.034 40.4934 64.8965H40.4989Z" fill="white"/>
<path d="M52.9578 67.1255C52.9578 69.7775 52.9413 72.4295 52.9578 75.0815C53.6713 75.0485 54.4341 75.1585 55.1367 74.8614C55.6965 74.6413 56.1026 74.1296 56.2563 73.5519C56.5527 72.5395 56.399 71.4611 56.4429 70.4323C56.4429 69.4804 56.4923 68.358 55.7568 67.6262C54.994 66.9219 53.8908 67.175 52.9578 67.1255ZM49.8623 64.8972H52.9578C54.1103 64.8972 55.3068 64.8201 56.4264 65.1943C57.6558 65.5519 58.6986 66.4708 59.1487 67.6757C59.692 69.0182 59.489 70.4653 59.5384 71.8738C59.5713 73.2603 59.242 74.7459 58.265 75.7583C57.2222 76.8642 55.6526 77.2713 54.1872 77.3043C52.7382 77.3208 51.2948 77.3208 49.8623 77.3043V64.9027V64.8972Z" fill="white"/>
<path d="M9.63214 1.8707C10.6749 1.24897 11.7013 0.594223 12.7605 0V59.0922C11.0646 60.1045 9.36869 61.1499 7.65631 62.1623C7.40934 62.3054 7.17334 62.4759 6.94282 62.63C4.61025 63.9725 2.33806 65.4195 0.0219536 66.7785C-0.0164652 47.0867 0.0164652 27.3893 0 7.70289C3.20522 5.73865 6.42691 3.81843 9.63214 1.8707Z" fill="#E85984"/>
<path d="M42.6614 18.6846C42.7547 18.9652 42.8315 19.2458 42.8809 19.5429L42.6449 19.2128C42.5955 19.2623 42.5187 19.3558 42.4912 19.4163C42.5077 19.1688 42.5845 18.9157 42.6614 18.6846Z" fill="#E85984"/>
<path d="M37.2281 13.2875C34.1327 24.1871 31.0208 35.0922 27.9088 45.9917C30.6146 46.0082 33.3369 46.0082 36.0481 45.9917C36.6409 43.6038 37.2446 41.2325 37.8538 38.8666C41.092 38.8666 44.3082 38.8501 47.5299 38.8666C47.7 38.806 47.6726 39.0371 47.7329 39.1307C48.3696 41.425 49.0062 43.7029 49.6484 45.9917C52.42 46.0082 55.2026 45.9917 57.9743 46.0083C54.7087 35.0922 51.4102 24.2036 48.1446 13.2875C44.5058 13.271 40.8779 13.2875 37.2391 13.2875H37.2281ZM12.7554 0C20.9715 0.0330124 29.1821 0 37.3983 0.0165062H68.512C69.0554 0.0165062 69.6152 -0.0165062 70.1475 0.15956C71.8764 0.660248 73.1826 2.34388 73.1826 4.15406C73.1991 7.14718 73.1991 10.1293 73.1991 13.1224C73.1991 28.3301 73.1826 43.5378 73.1991 58.74C73.1662 58.8666 73.2485 59.1307 73.029 59.0812C52.9414 59.0977 32.8594 59.0977 12.7609 59.0977V0H12.7554Z" fill="#E51351"/>
<path d="M42.6449 19.2129L42.8809 19.543C43.9236 23.9557 45.0104 28.3683 46.0532 32.7865H39.3628C40.3891 28.3243 41.4484 23.8676 42.4912 19.422C42.5241 19.3614 42.6009 19.2679 42.6449 19.2184V19.2129Z" fill="#E51351"/>
<path d="M49.8623 64.8971V77.2988C51.2947 77.3153 52.7382 77.3153 54.1871 77.2988C55.647 77.2657 57.2222 76.8641 58.265 75.7527C59.2474 74.7403 59.5712 73.2547 59.5383 71.8682C59.4889 70.4652 59.692 69.0126 59.1486 67.6701C58.6986 66.4707 57.6558 65.5463 56.4264 65.1887C55.3068 64.8146 54.1103 64.8916 52.9577 64.8916H49.8623V64.8971ZM40.4991 64.8971C39.33 69.0292 38.1336 73.1612 36.97 77.2988C37.9963 77.3153 39.0227 77.2988 40.049 77.2988C40.285 76.4074 40.4991 75.4886 40.7351 74.5862H44.4397C44.7032 75.4886 44.9556 76.3964 45.2026 77.2988C46.2619 77.3153 47.3047 77.3153 48.3584 77.2988C47.1126 73.1667 45.8667 69.0347 44.6428 64.8971H40.5045H40.4991ZM27.8318 65.7719C26.8659 66.6302 26.4158 67.9397 26.3994 69.2052C26.3994 70.4707 26.3829 71.7307 26.3994 72.9961C26.4158 74.2121 26.8494 75.4611 27.7385 76.3194C28.721 77.2712 30.1205 77.6454 31.4542 77.6124C32.7165 77.6124 34.0667 77.3648 34.9997 76.4569C35.8065 75.7252 36.1358 74.6027 36.1961 73.5243H33.3202C33.2708 74.0085 33.1775 74.5367 32.8373 74.8944C32.4311 75.318 31.8109 75.4115 31.2511 75.3785C30.7078 75.3455 30.1479 75.0814 29.868 74.5972C29.5552 74.1131 29.5113 73.5353 29.5113 72.9906V68.9961C29.5113 68.4349 29.6375 67.8572 29.9943 67.4225C30.587 66.7513 31.6298 66.6743 32.4037 66.9989C32.9964 67.263 33.2599 67.9342 33.2928 68.545H36.1577C36.1248 67.5161 35.7845 66.4542 35.0052 65.7389C34.0886 64.8806 32.7824 64.6 31.5694 64.5835C30.2467 64.5505 28.8472 64.8641 27.8373 65.7664L27.8318 65.7719ZM73.1989 13.1172H79.0002V84.0003H11.9155C11.202 83.9838 10.4556 84.0608 9.76951 83.7967C8.15044 83.2355 6.97043 81.5959 6.95397 79.8847C6.9375 74.1296 6.95397 68.3909 6.9375 62.6358C7.1735 62.4817 7.40401 62.3056 7.65099 62.1681C9.36337 61.1557 11.0593 60.1103 12.7552 59.0979C32.8537 59.0979 52.9413 59.0979 73.0233 59.0814C73.2428 59.1309 73.166 58.8613 73.1934 58.7403C73.177 43.5326 73.1934 28.3249 73.1934 13.1227L73.1989 13.1172Z" fill="#77132B"/>
<path d="M42.5515 66.9385C42.9741 68.7156 43.4077 70.4928 43.8413 72.27C42.9851 72.2865 42.1454 72.2865 41.3057 72.27C41.7283 70.4928 42.1289 68.7156 42.5515 66.9385Z" fill="#77132B"/>
<path d="M52.9575 67.1247C53.8905 67.1742 54.9937 66.9211 55.7566 67.6253C56.4866 68.3571 56.4426 69.4795 56.4426 70.4314C56.3932 71.4603 56.5524 72.5387 56.256 73.5511C56.1024 74.1288 55.6962 74.6405 55.1364 74.8606C54.4339 75.1577 53.6765 75.0476 52.9575 75.0806C52.941 72.4286 52.9575 69.7766 52.9575 67.1247Z" fill="#77132B"/>
</g>
<defs>
<clipPath id="clip0_209_1206">
<rect width="79" height="84" fill="white"/>
</clipPath>
</defs>
</svg>
