<svg width="75" height="73" viewBox="0 0 75 73" fill="none" xmlns="http://www.w3.org/2000/svg">
<g clip-path="url(#clip0_209_1220)">
<path d="M61.5159 73H13.4637C6.03237 73 0 66.9885 0 59.583V13.417C0 6.01147 6.03237 0 13.4637 0H61.5159C68.9702 0 75.0025 6.01147 75.0025 13.417V59.5855C75.0025 66.9911 68.9702 73.0025 61.5159 73.0025V73Z" fill="#00005C"/>
<path d="M31.048 35.166C30.0932 36.1174 28.7657 36.6975 27.2979 36.6975H22.8023V26.1602H27.2979C30.2336 26.1602 32.5848 28.5287 32.5848 31.4288C32.5848 32.8916 32.0027 34.2145 31.048 35.166ZM28.1837 20.2861H15.9556V52.7348H22.8023V42.5919H28.1837C31.2573 42.5919 34.0527 41.3377 36.0796 39.3203C38.1066 37.3004 39.3626 34.5147 39.3626 31.4288C39.3626 25.2775 34.3539 20.2861 28.1811 20.2861H28.1837Z" fill="#9A99FF"/>
<path d="M50.3346 31.0568V27.8997H43.7891V52.7368H50.3346V38.5998C50.3346 37.4168 50.8936 36.3026 51.8714 35.6284C54.5033 33.8171 59.0449 34.074 59.0449 34.074V27.2256C53.3622 27.2256 50.3346 31.0543 50.3346 31.0543V31.0568Z" fill="#9A99FF"/>
</g>
<defs>
<clipPath id="clip0_209_1220">
<rect width="75" height="73" fill="white"/>
</clipPath>
</defs>
</svg>
