<svg width="76" height="76" viewBox="0 0 76 76" fill="none" xmlns="http://www.w3.org/2000/svg">
<path fill-rule="evenodd" clip-rule="evenodd" d="M24.8802 0H76V51.1198C76 64.8052 64.8034 76 51.1198 76H24.882C11.1966 76 0 64.8034 0 51.1198V24.882C0 11.1966 11.1966 0 24.8802 0Z" fill="url(#paint0_linear_144_561)"/>
<path fill-rule="evenodd" clip-rule="evenodd" d="M57.3017 59.4831C57.7316 59.0425 58.5309 58.2414 59.0304 57.7651C59.5299 57.287 59.7279 57.1336 59.9099 57.0444C60.0919 56.9534 60.256 56.9266 60.3845 56.9498C60.5111 56.973 60.6003 57.0426 60.6628 57.1282C60.7252 57.2138 60.7609 57.312 60.7948 57.4832C60.8287 57.6545 60.859 57.9007 60.909 58.2486C60.9571 58.5965 61.0249 59.0478 61.0767 59.4421C61.1284 59.8364 61.1641 60.1753 61.1587 60.4055C61.1552 60.6356 61.1106 60.7552 61.016 60.8872C60.9232 61.0192 60.7787 61.1619 60.6485 61.2636C60.5165 61.3671 60.397 61.4277 60.2542 61.4581C60.1115 61.4866 59.9456 61.483 59.7494 61.467C59.5531 61.4509 59.3265 61.4242 59.1107 61.3938C58.8966 61.3635 58.6968 61.3278 58.4934 61.2939C58.29 61.26 58.0848 61.2297 57.8511 61.194C57.6174 61.1583 57.3534 61.1191 57.1678 61.0798C56.9823 61.0424 56.8753 61.0067 56.8021 60.946C56.729 60.8854 56.6879 60.8015 56.6612 60.7123C56.6344 60.6231 56.6219 60.5286 56.638 60.4251C56.6558 60.3198 56.7058 60.2039 56.7593 60.1058C56.8128 60.0076 56.8717 59.9274 57.2999 59.4867L57.3017 59.4831Z" fill="#FEFEFE"/>
<path fill-rule="evenodd" clip-rule="evenodd" d="M21.6845 15.7584C23.2741 14.2991 24.6621 14.1207 25.9805 15.1322C46.818 35.9698 57.3046 46.3422 57.3046 46.3422C58.6302 47.566 59.4205 48.8452 59.672 50.1832C59.8522 51.4053 60.011 52.6006 60.1502 53.7691C60.1769 54.0028 60.1038 54.1474 60.0057 54.3597C59.6952 55.0412 59.0887 55.7459 58.1859 56.472C56.1254 58.479 55.0942 59.4816 55.0942 59.4816C54.4858 60.1667 53.0265 59.8313 51.9775 59.619C49.6047 59.1409 49.3888 59.5244 47.4407 57.6887C26.6388 36.8868 16.2379 26.4859 16.2379 26.4859C15.2406 25.5903 14.7535 24.9034 14.7785 24.4253C14.7589 24.1827 14.7625 23.9543 14.7839 23.742C14.8642 22.9981 15.4101 22.2006 15.8614 21.6065C16.195 21.1676 16.6107 20.7127 17.1049 20.2399C18.3537 18.9465 19.8791 17.4533 21.681 15.7584H21.6845Z" fill="#FEFEFE"/>
<path fill-rule="evenodd" clip-rule="evenodd" d="M19.1878 18.226C19.1058 18.3794 19.104 18.531 19.1236 18.6773C19.1432 18.8236 19.1825 18.9663 19.2431 19.1091C19.3038 19.2518 19.3841 19.3945 19.4947 19.5479C19.6071 19.7014 19.7498 19.8673 20.2779 20.4079C20.806 20.9502 21.7212 21.869 22.5079 22.6647C23.2947 23.4603 23.9548 24.1347 24.7112 24.8929C25.4677 25.6511 26.3186 26.4932 26.7985 26.9624C27.2785 27.4298 27.3855 27.5244 27.4372 27.569C27.489 27.6136 27.4836 27.6082 28.3935 26.6894C29.3033 25.7689 31.1266 23.9331 32.0383 23.0161C32.6472 22.4048 32.9511 22.0985 32.9499 22.0973C32.9499 22.0973 32.9374 22.0848 31.7903 20.9395C30.6431 19.7941 28.3596 17.5106 27.2178 16.3706C26.076 15.2306 26.0796 15.2324 26.0171 15.1842C25.9547 15.136 25.8298 15.0379 25.6835 14.9451C25.5372 14.8524 25.3695 14.7649 25.1947 14.6971C25.0199 14.6276 24.8379 14.5758 24.6416 14.5473C24.4454 14.5187 24.2367 14.5134 24.0386 14.5294C23.8406 14.5455 23.6569 14.5865 23.4909 14.6347C23.325 14.6829 23.1805 14.7417 22.9896 14.8434C22.7987 14.9433 22.565 15.0861 22.3509 15.2341C22.1369 15.384 21.9424 15.541 21.7658 15.6944C21.5892 15.8479 21.4286 15.9995 21.2216 16.194C21.0147 16.3884 20.7649 16.6275 20.4848 16.8951C20.2065 17.1627 19.8997 17.4571 19.6642 17.6854C19.4305 17.912 19.2681 18.0708 19.1861 18.226H19.1878Z" fill="url(#paint1_linear_144_561)"/>
<path fill-rule="evenodd" clip-rule="evenodd" d="M60.0053 54.3593C59.8358 54.7054 59.6503 55.0016 59.4451 55.246C58.3087 55.1747 57.3881 55.0926 56.6852 54.9945C55.3686 54.9338 53.8343 54.0507 52.0824 52.3452L30.046 30.2409L25.0471 35.2933L23.916 34.1623L34.4579 23.6025L57.9947 47.0377C58.8439 47.9315 59.4023 48.9787 59.6717 50.1811C59.975 52.4379 60.1248 53.5654 60.1248 53.5654C60.1926 53.8473 60.1516 54.1114 60.0053 54.3576V54.3593Z" fill="url(#paint2_linear_144_561)"/>
<defs>
<linearGradient id="paint0_linear_144_561" x1="30.0673" y1="11.8415" x2="104.157" y2="86.6107" gradientUnits="userSpaceOnUse">
<stop stop-color="#85E31C"/>
<stop offset="0.37" stop-color="#2CC02B"/>
<stop offset="1" stop-color="#298822"/>
</linearGradient>
<linearGradient id="paint1_linear_144_561" x1="33.7122" y1="17.8249" x2="43.9335" y2="27.9706" gradientUnits="userSpaceOnUse">
<stop stop-color="#C6C6C6"/>
<stop offset="0.61" stop-color="#E2E2E2"/>
<stop offset="1" stop-color="#FEFEFE"/>
</linearGradient>
<linearGradient id="paint2_linear_144_561" x1="43.69" y1="32.3427" x2="68.3865" y2="58.8517" gradientUnits="userSpaceOnUse">
<stop stop-color="#C6C6C6"/>
<stop offset="0.67" stop-color="#E2E2E2"/>
<stop offset="1" stop-color="#FEFEFE"/>
</linearGradient>
</defs>
</svg>
