<svg width="23" height="24" viewBox="0 0 23 24" fill="none" xmlns="http://www.w3.org/2000/svg">
<path fill-rule="evenodd" clip-rule="evenodd" d="M3.93848 3.1219H4.5697V0.483738C4.5697 0.214995 4.79172 0 5.05291 0C5.31411 0 5.52307 0.214995 5.52307 0.483738V3.12638H6.16299V0.483738C6.16299 0.214995 6.37195 0 6.64621 0C6.92046 0 7.11636 0.214995 7.11636 0.483738V3.12638H7.75629V0.483738C7.75629 0.214995 7.96524 0 8.22644 0C8.48763 0 8.70965 0.214995 8.70965 0.483738V3.12638H9.34958V0.483738C9.34958 0.214995 9.55853 0 9.81973 0C10.0809 0 10.2899 0.214995 10.2899 0.483738V3.12638H10.9298V0.483738C10.9298 0.214995 11.1518 0 11.413 0C11.6742 0 11.8832 0.214995 11.8832 0.483738V3.12638H12.5231V0.483738C12.5231 0.214995 12.7321 0 12.9932 0C13.2544 0 13.4765 0.214995 13.4765 0.483738V3.12638H14.1164V0.483738C14.1164 0.214995 14.3253 0 14.5865 0C14.8477 0 15.0698 0.214995 15.0698 0.483738V3.12638H15.701V0.483738C15.701 0.214995 15.923 0 16.1842 0C16.4454 0 16.6543 0.214995 16.6543 0.483738V3.12638H17.2943V0.483738C17.2943 0.214995 17.5032 0 17.7775 0C18.0517 0 18.2476 0.214995 18.2476 0.483738V3.12638H18.8876C19.3577 3.12638 19.7495 3.52054 19.7495 4.01324V4.62239H22.2657C22.5269 4.62239 22.7358 4.85082 22.7358 5.11956C22.7358 5.38831 22.5269 5.6033 22.2657 5.6033H19.7495V6.26172H22.2657C22.5269 6.26172 22.7358 6.47672 22.7358 6.74546C22.7358 7.0142 22.5269 7.24264 22.2657 7.24264H19.7495V7.90106H22.2657C22.5269 7.90106 22.7358 8.11605 22.7358 8.3848C22.7358 8.65354 22.5269 8.88197 22.2657 8.88197H19.7495V9.53144H22.2657C22.5269 9.53144 22.7358 9.75987 22.7358 10.0286C22.7358 10.2974 22.5269 10.5123 22.2657 10.5123H19.7495V11.1708H22.2657C22.5269 11.1708 22.7358 11.3858 22.7358 11.6679C22.7358 11.9501 22.5269 12.1517 22.2657 12.1517H19.7495V12.8101H22.2657C22.5269 12.8101 22.7358 13.0251 22.7358 13.2938C22.7358 13.5626 22.5269 13.791 22.2657 13.791H19.7495V14.4494H22.2657C22.5269 14.4494 22.7358 14.6644 22.7358 14.9332C22.7358 15.2019 22.5269 15.4169 22.2657 15.4169H19.7495V16.0753H22.2657C22.5269 16.0753 22.7358 16.3038 22.7358 16.5725C22.7358 16.8413 22.5269 17.0562 22.2657 17.0562H19.7495V17.7147H22.2657C22.5269 17.7147 22.7358 17.9297 22.7358 18.1984C22.7358 18.4672 22.5269 18.6956 22.2657 18.6956H19.7495V19.3943C19.7495 19.8915 19.3533 20.2812 18.8876 20.2812H18.2476V22.8342C18.2476 23.103 18.0387 23.318 17.7775 23.318C17.5163 23.318 17.2943 23.103 17.2943 22.8342V20.2812H16.6543V22.8342C16.6543 23.103 16.4454 23.318 16.1842 23.318C15.923 23.318 15.701 23.103 15.701 22.8342V20.2812H15.0698V22.8342C15.0698 23.103 14.8477 23.318 14.5865 23.318C14.3253 23.318 14.1164 23.103 14.1164 22.8342V20.2812H13.4765V22.8342C13.4765 23.103 13.2675 23.318 12.9932 23.318C12.719 23.318 12.5231 23.103 12.5231 22.8342V20.2812H11.8832V22.8342C11.8832 23.103 11.6742 23.318 11.413 23.318C11.1518 23.318 10.9298 23.103 10.9298 22.8342V20.2812H10.2899V22.8342C10.2899 23.103 10.0809 23.318 9.81973 23.318C9.55853 23.318 9.34958 23.103 9.34958 22.8342V20.2812H8.70965V22.8342C8.70965 23.103 8.48763 23.318 8.22644 23.318C7.96524 23.318 7.75629 23.103 7.75629 22.8342V20.2812H7.11636V22.8342C7.11636 23.103 6.9074 23.318 6.64621 23.318C6.38501 23.318 6.16299 23.103 6.16299 22.8342V20.2812H5.52307V22.8342C5.52307 23.103 5.31411 23.318 5.05291 23.318C4.79172 23.318 4.5697 23.103 4.5697 22.8342V20.2812H3.93848C3.45527 20.2812 3.06348 19.887 3.06348 19.3943V18.6956H0.547301C0.286105 18.6956 0.0771484 18.4806 0.0771484 18.1984C0.0771484 17.9162 0.286105 17.7147 0.547301 17.7147H3.06348V17.0562H0.547301C0.286105 17.0562 0.0771484 16.8413 0.0771484 16.5725C0.0771484 16.3038 0.286105 16.0753 0.547301 16.0753H3.06348V15.4169H0.547301C0.286105 15.4169 0.0771484 15.2019 0.0771484 14.9332C0.0771484 14.6644 0.286105 14.4494 0.547301 14.4494H3.06348V13.791H0.547301C0.286105 13.791 0.0771484 13.5626 0.0771484 13.2938C0.0771484 13.0251 0.286105 12.8101 0.547301 12.8101H3.06348V12.1517H0.547301C0.286105 12.1517 0.0771484 11.9367 0.0771484 11.6679C0.0771484 11.3992 0.286105 11.1708 0.547301 11.1708H3.06348V10.5123H0.547301C0.286105 10.5123 0.0771484 10.2974 0.0771484 10.0286C0.0771484 9.75987 0.286105 9.53144 0.547301 9.53144H3.06348V8.88197H0.547301C0.286105 8.88197 0.0771484 8.65354 0.0771484 8.3848C0.0771484 8.11605 0.286105 7.90106 0.547301 7.90106H3.06348V7.24264H0.547301C0.286105 7.24264 0.0771484 7.02764 0.0771484 6.74546C0.0771484 6.46328 0.286105 6.26172 0.547301 6.26172H3.06348V5.6033H0.547301C0.286105 5.6033 0.0771484 5.38831 0.0771484 5.11956C0.0771484 4.85082 0.286105 4.62239 0.547301 4.62239H3.06348V4.01324C3.06348 3.51606 3.45962 3.12638 3.93848 3.12638V3.1219ZM13.7855 5.11508V6.80369H9.02309V5.11508H6.5069C5.67978 5.11508 5.00068 5.80038 5.00068 6.6514V16.7338C5.00068 17.5848 5.67978 18.2701 6.5069 18.2701H16.3061C17.1201 18.2701 17.7992 17.5848 17.7992 16.7338V6.6514C17.7992 5.80038 17.1201 5.11508 16.3061 5.11508H13.7899H13.7855ZM9.75008 6.04225H13.0455V4.35364H16.3017C17.525 4.35364 18.5349 5.38383 18.5349 6.6514V16.7338C18.5349 17.9924 17.525 19.0315 16.3017 19.0315H6.50255C5.27058 19.0315 4.26933 17.9924 4.26933 16.7338V6.6514C4.26933 5.38383 5.27058 4.35364 6.50255 4.35364H9.75008V6.04225Z" fill="white"/>
</svg>
