<?xml version="1.0" standalone="no"?>
<!DOCTYPE svg PUBLIC "-//W3C//DTD SVG 20010904//EN"
 "http://www.w3.org/TR/2001/REC-SVG-20010904/DTD/svg10.dtd">
<svg version="1.0" xmlns="http://www.w3.org/2000/svg"
 width="19.000000pt" height="30.000000pt" viewBox="0 0 91.000000 92.000000"
 preserveAspectRatio="xMidYMid meet">

<g transform="translate(0.000000,92.000000) scale(0.100000,-0.100000)"
fill="#1962EC" stroke="none">
<path d="M58 884 c-15 -8 -32 -23 -38 -34 -5 -10 -10 -82 -10 -160 l0 -142 29
-29 29 -29 146 0 c139 0 146 1 173 24 28 24 28 25 31 161 5 215 -4 225 -205
225 -93 -1 -135 -5 -155 -16z m276 -90 c9 -23 7 -197 -2 -212 -6 -9 -38 -12
-123 -10 l-114 3 -3 104 c-1 58 0 111 2 118 4 10 34 13 120 13 95 0 115 -3
120 -16z"/>
<path d="M555 891 c-50 -21 -60 -46 -63 -168 -5 -141 1 -173 35 -207 25 -26
28 -26 173 -26 141 0 148 1 173 24 33 31 40 68 35 211 l-3 117 -33 29 -32 29
-133 -1 c-72 0 -141 -4 -152 -8z m263 -198 l-3 -118 -115 0 -115 0 -3 118 -3
117 121 0 121 0 -3 -117z"/>
<path d="M39 381 l-29 -29 0 -146 c0 -139 1 -146 24 -173 24 -28 25 -28 161
-31 214 -5 225 4 225 203 0 133 -10 174 -49 195 -11 5 -83 10 -161 10 l-142 0
-29 -29z m289 -63 c8 -8 12 -48 12 -115 0 -91 -2 -103 -19 -113 -21 -11 -189
-14 -215 -4 -13 5 -16 25 -16 118 0 62 3 116 7 119 12 13 218 8 231 -5z"/>
<path d="M543 398 c-40 -19 -53 -66 -53 -193 0 -124 10 -160 52 -189 18 -13
52 -16 160 -16 l138 0 32 29 33 29 3 130 c4 145 -8 189 -54 211 -32 14 -281
14 -311 -1z m275 -190 c3 -139 12 -131 -138 -126 l-95 3 -3 109 c-1 61 0 116
2 123 4 11 31 13 118 11 l113 -3 3 -117z"/>
</g>
</svg>
