<svg width="23" height="23" viewBox="0 0 23 23" fill="none" xmlns="http://www.w3.org/2000/svg">
<path fill-rule="evenodd" clip-rule="evenodd" d="M11.9492 0.797267C18.0506 0.797267 23 5.76669 23 11.8928C23 18.0189 18.0506 23 11.9492 23C5.84774 23 0.890579 18.0306 0.890579 11.8928C0.890579 10.2688 1.24355 8.73432 1.85641 7.34398L3.53983 9.0342C3.62904 9.11209 3.71438 9.20167 3.81523 9.27567C3.55147 10.0935 3.40795 10.9776 3.40795 11.8928C3.40795 16.6285 7.23249 20.4724 11.953 20.4724C16.6736 20.4724 20.4981 16.6324 20.4981 11.8928C20.4981 7.15314 16.6736 3.31314 11.953 3.31314C11.0066 3.31314 10.0951 3.46892 9.23786 3.75322C9.18355 3.67533 9.11761 3.60912 9.05167 3.54291L7.32558 1.80985C8.73361 1.15946 10.2929 0.793372 11.953 0.793372L11.9492 0.797267ZM3.43898 3.29366V0.380552C3.43898 0.224771 3.52819 0.0923565 3.67171 0.0261494C3.82687 -0.0283741 3.97814 0.00278221 4.09063 0.115724L8.27978 4.32182C8.60948 4.64117 8.77627 5.0501 8.77627 5.51355V7.6867L12.2052 11.1295C12.5038 11.4293 12.5038 11.9239 12.2052 12.2238C11.9065 12.5237 11.4255 12.5237 11.1152 12.2238L7.68632 8.78106H5.55295C5.0681 8.78106 4.65306 8.60581 4.31172 8.26309L0.110931 4.04531C0.00232287 3.93626 -0.0325867 3.78048 0.0333536 3.63638C0.0876575 3.49228 0.219538 3.39492 0.374692 3.39492L3.44286 3.29366H3.43898ZM11.9492 5.86795C15.2578 5.86795 17.9536 8.57076 17.9536 11.8967C17.9536 15.2226 15.2617 17.9254 11.9492 17.9254C8.63663 17.9254 5.94472 15.2304 5.94472 11.8967C5.94472 11.1918 6.06496 10.5063 6.28605 9.86374H7.23249L8.53966 11.1762C8.497 11.4099 8.47372 11.6513 8.47372 11.8928C8.47372 13.8245 10.0253 15.3823 11.9492 15.3823C13.8731 15.3823 15.4246 13.8245 15.4246 11.8928C15.4246 9.9611 13.8614 8.40329 11.9492 8.40329C11.6621 8.40329 11.3867 8.43834 11.123 8.50455L9.85847 7.23493V6.24182C10.5062 6.00036 11.2122 5.86795 11.9492 5.86795Z" fill="white"/>
</svg>
