<?xml version="1.0" standalone="no"?>
<!DOCTYPE svg PUBLIC "-//W3C//DTD SVG 20010904//EN"
 "http://www.w3.org/TR/2001/REC-SVG-20010904/DTD/svg10.dtd">
<svg version="1.0" xmlns="http://www.w3.org/2000/svg"
 width="20.000000pt" height="23.000000pt" viewBox="0 0 71.000000 86.000000"
 preserveAspectRatio="xMidYMid meet">

<g transform="translate(0.000000,86.000000) scale(0.100000,-0.100000)"
fill="#1962EC" stroke="none">
<path d="M175 833 c-46 -24 -66 -45 -86 -88 -31 -67 -19 -155 29 -208 44 -49
143 -71 208 -47 23 9 29 7 42 -11 20 -28 88 -59 133 -59 124 -1 209 145 146
254 -37 65 -67 81 -152 81 -69 0 -75 2 -89 27 -35 59 -163 87 -231 51z m151
-97 c26 -26 34 -42 34 -71 0 -46 -53 -105 -94 -105 -107 0 -151 137 -62 191
47 29 82 25 122 -15z m229 -79 c52 -44 27 -137 -40 -149 -30 -6 -80 15 -88 37
-8 19 21 116 37 127 22 15 65 8 91 -15z"/>
<path d="M165 396 c-46 -20 -94 -64 -118 -110 -18 -34 -22 -62 -25 -164 l-4
-122 346 0 346 0 0 105 c0 113 -12 160 -53 203 -49 53 -138 81 -203 63 -35 -9
-46 -7 -88 14 -56 28 -150 34 -201 11z m153 -80 c15 -8 40 -28 57 -46 26 -28
30 -39 33 -105 l4 -75 -156 0 -156 0 0 50 c0 53 19 112 48 144 39 43 119 58
170 32z m243 -41 c44 -23 69 -71 69 -132 l0 -53 -65 0 -65 0 0 48 c0 46 -10
99 -25 135 -6 14 -2 17 24 17 18 0 45 -7 62 -15z"/>
</g>
</svg>
