<svg width="20" height="20" viewBox="0 0 20 20" fill="none" xmlns="http://www.w3.org/2000/svg">
<path d="M1 17V8.06999C0.999951 7.7408 1.08116 7.41669 1.23641 7.12642C1.39166 6.83615 1.61617 6.58868 1.89 6.40599L8.89 1.73999C9.21866 1.52071 9.6049 1.40369 10 1.40369C10.3951 1.40369 10.7813 1.52071 11.11 1.73999L18.11 6.40599C18.3838 6.58868 18.6083 6.83615 18.7636 7.12642C18.9188 7.41669 19 7.7408 19 8.06999V17M1 17C1 17.5304 1.21071 18.0391 1.58579 18.4142C1.96086 18.7893 2.46957 19 3 19H17C17.5304 19 18.0391 18.7893 18.4142 18.4142C18.7893 18.0391 19 17.5304 19 17M1 17L7.75 12.5M19 17L12.25 12.5M7.75 12.5L1 7.99999M7.75 12.5L8.89 13.26C9.21866 13.4793 9.6049 13.5963 10 13.5963C10.3951 13.5963 10.7813 13.4793 11.11 13.26L12.25 12.5M12.25 12.5L19 7.99999" stroke="white" stroke-width="2" stroke-linecap="round" stroke-linejoin="round"/>
</svg>