<?xml version="1.0" standalone="no"?>
<!DOCTYPE svg PUBLIC "-//W3C//DTD SVG 20010904//EN"
 "http://www.w3.org/TR/2001/REC-SVG-20010904/DTD/svg10.dtd">
<svg version="1.0" xmlns="http://www.w3.org/2000/svg"
 width="19.000000pt" height="30.000000pt" viewBox="0 0 73.000000 73.000000"
 preserveAspectRatio="xMidYMid meet">

<g transform="translate(0.000000,73.000000) scale(0.100000,-0.100000)"
fill="#1962EC" stroke="none">
<path d="M26 707 c-24 -18 -17 -59 12 -72 21 -10 22 -13 22 -168 0 -170 9
-211 51 -241 13 -9 43 -16 66 -16 24 0 43 -3 43 -6 0 -4 -20 -39 -45 -78 -25
-40 -45 -80 -45 -89 0 -20 33 -39 53 -31 8 3 45 50 81 105 62 93 68 99 100 99
31 0 37 -6 96 -95 72 -109 82 -119 109 -110 40 12 35 42 -18 123 l-51 77 56 5
c45 4 61 11 80 33 23 27 24 33 24 205 l0 178 30 11 c36 13 42 56 11 73 -31 16
-652 14 -675 -3z m554 -242 l0 -165 -215 0 -215 0 0 165 0 165 215 0 215 0 0
-165z"/>
</g>
</svg>
