<svg width="93" height="91" viewBox="0 0 93 91" fill="none" xmlns="http://www.w3.org/2000/svg">
<g clip-path="url(#clip0_112_244)">
<path d="M76.2214 91H16.7632C7.60979 91 0 83.3639 0 74.2128V16.7872C0 7.63615 7.62523 0 16.7632 0H76.2214C85.6681 0 92.9846 7.63615 92.9846 16.7872V74.1974C92.9846 83.3639 85.6681 90.9845 76.2214 90.9845V91Z" fill="#2D0402"/>
<path d="M71.9617 36.3413H63.4258V67.4887H71.9617V36.3413Z" fill="#FF9A00"/>
<path d="M72.5639 28.396C72.5639 31.1474 70.4338 33.2806 67.6863 33.2806C64.9387 33.2806 62.8086 31.1474 62.8086 28.396C62.8086 25.6445 64.9387 23.5113 67.6863 23.5113C70.4338 23.5113 72.5639 25.6445 72.5639 28.396Z" fill="#FF9A00"/>
<path d="M35.0705 49.7741L39.6395 33.8989L44.5172 49.7741H35.0705ZM45.1346 26.5719H34.1598C34.1598 28.4114 33.8511 30.2354 33.2491 32.0749L20.4375 67.4887H29.2821L32.6317 57.7194H46.956L50.3055 67.4887H59.7522L45.1192 26.5719H45.1346Z" fill="#FF9A00"/>
</g>
<defs>
<clipPath id="clip0_112_244">
<rect width="93" height="99" fill="white"/>
</clipPath>
</defs>
</svg>
