<svg width="50" height="60" viewBox="0 0 50 60" fill="none" xmlns="http://www.w3.org/2000/svg">
<path fill-rule="evenodd" clip-rule="evenodd" d="M31.0789 13.3926C31.0789 6.00263 25.0763 0 17.6451 0C10.2551 0 4.25251 6.00263 4.25251 13.3926C4.25251 20.7825 10.2139 26.7852 17.6451 26.7852C25.0763 26.7852 31.0789 20.7825 31.0789 13.3926ZM10.5573 13.4063C10.5573 9.47783 13.7166 6.31855 17.6451 6.31855C21.5873 6.31855 24.7741 9.4641 24.7741 13.4063C24.7741 17.3486 21.5736 20.5353 17.6451 20.5353C13.7166 20.5353 10.5573 17.3348 10.5573 13.4063ZM34.5127 47.5823V53.5395H43.5097V48.6357C43.5097 43.6908 39.4575 39.6387 34.5126 39.6387C33.8945 39.6387 33.2214 39.7211 32.6445 39.8722C31.5868 37.853 30.1583 36.0536 28.4001 34.6113C30.3094 33.7871 32.3698 33.3613 34.5126 33.3613C42.919 33.3613 49.8145 40.2156 49.8145 48.622V59.8306V59.8443H34.5127V59.8485H0.832031V47.5823C0.832031 38.3242 8.40056 30.7282 17.6586 30.7282C26.9167 30.7282 34.5127 38.3105 34.5127 47.5823ZM28.2353 47.5823V53.5437H7.09565V47.5823C7.09565 41.7857 11.8483 37.033 17.6449 37.033C23.4415 37.033 28.2353 41.7857 28.2353 47.5823ZM46.7393 18.5011C46.7393 11.7704 41.2861 6.27604 34.5142 6.27604L34.528 6.2623C32.7835 6.2623 31.1489 6.66065 29.6242 7.31998C30.5583 9.14686 31.1077 11.2073 31.1077 13.3913V13.7072C32.0692 13.0067 33.2368 12.5809 34.528 12.5809C37.7971 12.5809 40.4482 15.2319 40.4482 18.5011C40.4482 21.7702 37.7971 24.4213 34.528 24.4213C31.9868 24.4213 29.844 22.8554 28.9924 20.6027C27.7836 22.4708 26.149 24.0367 24.2397 25.1218C26.41 28.5009 30.1874 30.7261 34.5142 30.7261C41.2861 30.7261 46.7393 25.2317 46.7393 18.5011Z" fill="#1962EC"/>
</svg>
