<svg width="60" height="58" viewBox="0 0 60 58" fill="none" xmlns="http://www.w3.org/2000/svg">
<path fill-rule="evenodd" clip-rule="evenodd" d="M59.0553 11.9504C59.1669 12.0727 59.2467 12.2217 59.2946 12.3812V12.3866L59.3425 12.4131L59.2999 36.6082C59.2999 39.3207 57.0926 41.5227 54.3854 41.5227H28.2331L33.02 47.9052C33.3285 48.32 33.387 48.8466 33.1795 49.32C32.9721 49.788 32.5413 50.0965 32.0254 50.1444L26.2651 50.6603L23.8611 55.878C23.6483 56.3301 23.2281 56.6333 22.7335 56.6864C22.2389 56.7396 21.7602 56.5322 21.4623 56.1333L17.9785 51.5007L14.4097 56.7449C14.1544 57.1173 13.7395 57.3353 13.298 57.3353C13.2395 57.3353 13.181 57.33 13.1225 57.3247C12.6119 57.2609 12.1917 56.9205 12.0215 56.4418L9.88871 50.4529L4.01149 50.1976C3.51153 50.1763 3.07007 49.8838 2.85201 49.4317C2.63394 48.9796 2.68712 48.453 2.97965 48.0488L7.76653 41.5174H5.33054C2.61797 41.5174 0.416016 39.3101 0.416016 36.6028V5.09455C0.416016 2.38198 2.62329 0.180019 5.33054 0.180019L48.2476 0.164062L48.2635 0.281075C48.3965 0.339581 48.5082 0.43 48.6092 0.536375L59.0553 11.9504ZM49.072 4.64777V11.3494H55.2045L49.072 4.64777ZM13.9576 46.1553C12.3566 45.533 10.9152 44.5597 9.75574 43.3204V43.3257L6.59109 47.6446L11.7981 47.8733L13.665 53.1069L16.2872 49.2508L13.9576 46.1553ZM6.7081 35.5976C6.7081 29.3481 11.7928 24.2686 18.037 24.2686C24.2866 24.2686 29.366 29.3534 29.366 35.5976C29.366 36.6933 29.2011 37.7889 28.8767 38.8527H54.3854C55.6247 38.8527 56.6352 37.8421 56.6352 36.6028V13.7854H46.636V2.84471H5.33586C4.09659 2.84471 3.08602 3.85528 3.08602 5.09455V36.6028C3.08602 37.8421 4.09659 38.8527 5.33586 38.8527H7.19742C6.87298 37.7889 6.7081 36.6933 6.7081 35.5976ZM26.7013 35.5976C26.7013 30.8214 22.8133 26.9333 18.037 26.9333C13.2608 26.9333 9.37279 30.8214 9.37279 35.5976C9.37279 40.3738 13.2608 44.2618 18.037 44.2618C22.8133 44.2618 26.7013 40.3738 26.7013 35.5976ZM26.2811 43.3576C24.1376 45.6341 21.1698 46.9265 18.037 46.9265H17.8722L22.3239 52.841L24.4887 48.1392L29.5309 47.6871L26.2811 43.3576ZM15.8831 8.97206H34.4668C35.2008 8.97206 35.8018 8.37636 35.8018 7.63706C35.8018 6.89775 35.2061 6.30205 34.4668 6.30205H15.8831C15.1491 6.30205 14.5481 6.89775 14.5481 7.63706C14.5481 8.37636 15.1438 8.97206 15.8831 8.97206ZM18.0371 42.5124C21.8507 42.5124 24.9515 39.4115 24.9515 35.598C24.9515 31.7845 21.8507 28.6836 18.0371 28.6836C14.2236 28.6836 11.1227 31.7845 11.1227 35.598C11.1227 39.4115 14.2236 42.5124 18.0371 42.5124ZM13.7928 35.598C13.7928 33.2577 15.6969 31.3483 18.0424 31.3483C20.388 31.3483 22.2921 33.2524 22.2921 35.598C22.2921 37.9436 20.388 39.8477 18.0424 39.8477C15.6969 39.8477 13.7928 37.9436 13.7928 35.598ZM16.2447 18.2851C15.5054 18.2851 14.9097 17.6841 14.9097 16.9501C14.9097 16.2108 15.5107 15.6151 16.2447 15.6151H47.0563C47.7956 15.6151 48.3913 16.2108 48.3913 16.9501C48.3913 17.6894 47.7902 18.2851 47.0563 18.2851H16.2447ZM48.3857 22.6309C48.3857 21.8969 47.79 21.2959 47.0507 21.2959H16.2392C15.5052 21.2959 14.9042 21.8916 14.9042 22.6309C14.9042 23.3702 15.4999 23.9659 16.2392 23.9659H47.0507C47.7847 23.9659 48.3857 23.3702 48.3857 22.6309Z" fill="#1962EC"/>
</svg>
