<svg width="108" height="47" viewBox="0 0 108 47" fill="none" xmlns="http://www.w3.org/2000/svg">
<path fill-rule="evenodd" clip-rule="evenodd" d="M27.9542 13.6438V1.23906C27.9542 0.555956 28.6856 0.132794 29.278 0.465278L40.238 6.66763C40.8364 7.01221 40.8364 7.87667 40.238 8.2152L29.278 14.4175C28.6856 14.75 27.9542 14.3208 27.9542 13.6438ZM22.8266 9.42365V5.59101H3.8266C1.71079 5.59101 0 7.30179 0 9.4176V30.213C0 31.2709 0.858415 32.1293 1.91632 32.1293C2.97423 32.1293 3.83264 31.2709 3.83264 30.213V9.42969H22.8205L22.8266 9.42365ZM105.73 12.4101C104.515 11.7149 103.07 11.733 101.867 12.4524L88.06 20.7404V9.41774C88.06 7.30193 86.3492 5.59114 84.2334 5.59114H45.2904V9.42378H84.2274V20.7464C84.2274 22.1428 84.9528 23.3881 86.1679 24.0773C87.3829 24.7664 88.8217 24.7483 90.0187 24.0289L103.826 15.741L103.838 43.1619L90.0549 34.8498C88.598 33.9733 86.6878 34.1486 85.4062 35.3878C84.6505 36.1193 84.2576 37.153 84.2576 38.2109V44.2319C84.2576 45.2898 85.116 46.1482 86.1739 46.1482C87.2318 46.1482 88.0902 45.2898 88.0902 44.2259L88.0781 38.1323L101.861 46.4445C102.466 46.8072 103.155 46.9946 103.838 46.9946C104.781 46.9946 105.73 46.6439 106.474 45.9427C107.253 45.2052 107.665 44.1533 107.665 43.0773V15.8377C107.665 14.4352 106.951 13.1053 105.73 12.4101ZM13.807 20.9468H17.3011V41.7362H27.2817V44.7407H13.807V20.9468ZM34.524 20.9467H31.0299V44.7405H34.524V20.9467ZM47.358 40.5207C48.0411 37.9152 48.9841 35.0982 49.8304 32.6257L49.8184 32.6317L53.8263 20.9525H57.5622L49.0385 44.7463H45.3691L37.589 20.9525H41.3551L45.0487 32.6015C46.0038 35.5939 46.7776 38.1268 47.358 40.5207ZM63.8794 41.7361V33.8108H72.9593V30.8366H63.8794V23.9511H73.4792V20.9467H60.3853V44.7405H73.9991V41.7361H63.8794Z" fill="#1962EC"/>
</svg>
