<svg width="93" height="69" viewBox="0 0 93 69" fill="none" xmlns="http://www.w3.org/2000/svg">
<path d="M90.8118 22.7852C92.0086 22.3261 92.7765 21.2104 92.7701 19.9353C92.7701 18.6601 91.9894 17.5444 90.7926 17.0981L48.0995 1.10171C47.4147 0.846688 46.6595 0.840312 45.9747 1.09534L2.25123 17.0917C1.04167 17.538 0.254486 18.6538 0.248086 19.9353C0.241686 21.2168 1.02247 22.3452 2.23203 22.7915L17.4124 28.4531V43.2636C17.4124 49.3332 22.3658 54.2679 28.4585 54.2679H64.7902C70.8828 54.2679 75.8362 49.3332 75.8362 43.2636V28.4977L84.2456 25.2844V36.7414C83.0616 37.5447 82.3256 38.9728 82.3256 40.5476C82.3256 42.1224 83.0104 43.4549 84.124 44.2646C83.2152 47.14 82.1785 53.2861 81.8713 66.4007L81.8137 68.9382L83.5416 67.0701C84.4248 66.1138 85.6215 65.2531 85.9671 65.2595L87.3303 65.897V65.2148C87.8679 65.5336 88.6039 66.1393 89.199 66.7769L90.927 68.6449L90.8694 66.1074C90.5686 53.2478 89.5638 47.1209 88.687 44.2072C89.7558 43.3848 90.415 42.0267 90.415 40.5412C90.415 39.1641 89.8326 37.8635 88.8662 37.0283V23.5184L90.8118 22.7724V22.7852ZM85.3271 19.9608L47.0179 34.5864L7.78067 19.9608L47.0179 5.60289L85.3271 19.9608ZM22.0266 30.1745L45.9619 39.094C46.6595 39.3554 47.4339 39.349 48.1251 39.0876L71.2348 30.2638V43.27C71.2348 46.8021 68.3485 49.6775 64.7966 49.6775H28.4649C24.9194 49.6775 22.033 46.8021 22.033 43.27V30.1745H22.0266Z" fill="#1962EC"/>
</svg>
