<svg width="26" height="22" viewBox="0 0 26 22" fill="none" xmlns="http://www.w3.org/2000/svg">
<g clip-path="url(#clip0_475_1074)">
<path d="M25.9425 14.8965C25.8208 14.6861 25.5798 14.6497 25.3176 14.8043C25.0603 14.9562 24.8041 15.11 24.5479 15.2631C21.281 17.212 18.0144 19.1616 14.7447 21.1061C14.6572 21.1582 14.5287 21.183 14.4296 21.1642C13.6679 21.0223 12.9085 20.8661 12.148 20.7154C8.84642 20.0627 5.54446 19.4132 2.24449 18.7533C2.02252 18.7089 1.79102 18.6259 1.60525 18.4993C0.711844 17.8899 0.773898 16.1774 1.70908 15.6345C1.86978 15.5416 2.09651 15.4751 2.27114 15.5091C6.26324 16.288 10.2526 17.0801 14.2407 17.8799C14.5283 17.9376 14.757 17.8967 15.0084 17.7456C17.193 16.4319 19.3848 15.1301 21.5745 13.8247C22.9262 13.0189 24.2778 12.214 25.6291 11.4078C25.8932 11.2504 25.9764 11.0276 25.855 10.8129C25.7301 10.5909 25.4938 10.5576 25.2178 10.7223C24.6872 11.0384 24.1561 11.3534 23.6259 11.6695C20.6322 13.4545 17.6397 15.2407 14.6432 17.0208C14.5565 17.0725 14.4269 17.0938 14.3274 17.0745C13.2669 16.8714 12.2088 16.6562 11.1496 16.4467C8.134 15.8497 5.11844 15.2535 2.10248 14.6581C1.7592 14.5904 1.46365 14.4397 1.2393 14.1649C0.69116 13.4933 0.787422 12.2485 1.4358 11.6735C1.68083 11.4563 1.95649 11.3385 2.295 11.4339C2.47281 11.484 2.65857 11.5068 2.84036 11.5429C4.54921 11.8822 6.25847 12.222 7.96772 12.5606C8.28197 12.6227 8.48881 12.5065 8.53575 12.2497C8.57831 12.0153 8.41721 11.8314 8.11411 11.7713C7.78912 11.7067 7.46414 11.6442 7.13915 11.5797C5.50826 11.256 3.88254 10.901 2.24449 10.6201C1.32204 10.4619 0.865785 9.93499 0.804527 9.1096C0.759976 8.5078 0.910336 7.9681 1.37892 7.55781C1.55195 7.40636 1.74368 7.3138 1.99627 7.36308C5.96292 8.13517 9.93116 8.89885 13.8978 9.67215C14.1564 9.72263 14.3664 9.68136 14.5927 9.54914C18.2105 7.43761 21.8323 5.33329 25.4529 3.22777C25.6736 3.09955 25.76 2.95611 25.7242 2.76659C25.6816 2.53941 25.5193 2.46209 25.3144 2.42162C21.2464 1.61667 17.1783 0.808119 13.1086 0.00958291C12.9734 -0.0168613 12.7979 0.0127883 12.6782 0.0817035C9.4944 1.92238 6.31615 3.77308 3.13511 5.61857C2.4923 5.99119 1.83756 6.34298 1.19674 6.7184C1.00461 6.83099 0.818449 6.97123 0.667293 7.1347C-0.310049 8.19127 -0.19708 9.97024 0.896414 10.903C0.925451 10.9278 0.952898 10.9547 0.981936 10.9815C-0.192704 11.9828 -0.239642 14.1008 1.08814 15.0944C1.03245 15.1385 0.976765 15.1746 0.929827 15.2206C-0.112353 16.2467 -0.0578572 18.1191 1.04081 19.0514C1.41353 19.368 1.85824 19.4938 2.32802 19.5863C6.34518 20.3765 10.3608 21.175 14.3751 21.9775C14.6257 22.0276 14.831 21.996 15.0522 21.8625C16.7069 20.8653 18.3676 19.8788 20.0272 18.8896C21.9262 17.7573 23.8252 16.6254 25.7238 15.4931C25.9867 15.3364 26.0674 15.112 25.9425 14.8965ZM11.5644 3.44172C12.4125 2.9477 13.2594 2.45127 14.1122 1.96565C14.2049 1.91277 14.3389 1.88712 14.4428 1.90716C16.5347 2.31504 18.625 2.73093 20.7157 3.14603C20.7404 3.15084 20.7643 3.15845 20.849 3.18009C20.6505 3.29708 20.4985 3.38723 20.3458 3.47618C19.6119 3.9029 18.8792 4.33201 18.1413 4.75232C18.057 4.8004 17.938 4.83325 17.8466 4.81522C15.7483 4.40614 13.6512 3.98904 11.5541 3.57274C11.5223 3.56633 11.4912 3.55391 11.4316 3.53588C11.4877 3.49581 11.5239 3.46536 11.5644 3.44172Z" fill="white"/>
<path d="M25.1672 6.61112C24.2089 7.18168 23.2515 7.75263 22.2936 8.32359C19.7116 9.86376 17.1305 11.4047 14.5457 12.9405C14.4685 12.9862 14.3552 13.0058 14.2669 12.9902C13.8428 12.9157 13.422 12.8239 12.9999 12.7402C12.5906 12.6588 12.1813 12.5799 11.8141 12.5082C11.5675 12.5078 11.4076 12.636 11.3706 12.8287C11.334 13.0194 11.4367 13.2042 11.6232 13.2763C11.6721 13.2955 11.7246 13.3071 11.7768 13.3175C12.6216 13.4838 13.4673 13.6449 14.3106 13.818C14.4864 13.854 14.6312 13.8252 14.782 13.7346C15.9833 13.0146 17.1865 12.2994 18.3894 11.5822C20.7837 10.1551 23.1779 8.72786 25.5717 7.29947C25.8096 7.15764 25.886 6.92885 25.7706 6.72732C25.6501 6.51616 25.407 6.46808 25.1668 6.61112H25.1672Z" fill="white"/>
<path d="M10.7831 10.4006C10.2878 10.3112 9.79378 10.2127 9.29934 10.1185C9.20388 10.1005 9.10761 10.0864 8.98828 10.0664C9.01851 11.4523 9.04795 12.8138 9.07858 14.2165C9.35981 14.0322 9.60245 13.8832 9.83356 13.7177C9.94971 13.6348 10.0189 13.6444 10.1144 13.7502C10.3988 14.0655 10.6948 14.37 11.015 14.7094C11.0221 14.636 11.0269 14.6104 11.0265 14.5848C10.9979 13.2561 10.9672 11.9275 10.9426 10.5989C10.9402 10.4775 10.9056 10.4222 10.7831 10.4002V10.4006Z" fill="white"/>
</g>
<defs>
<clipPath id="clip0_475_1074">
<rect width="26" height="22" fill="white"/>
</clipPath>
</defs>
</svg>
