<svg width="13" height="13" viewBox="0 0 13 13" fill="none" xmlns="http://www.w3.org/2000/svg">
<g clip-path="url(#clip0_528_3356)">
<path d="M4.44698 11.0589H2.3434C2.1314 11.0589 1.95976 10.8889 1.95976 10.6789V2.32111C1.95976 2.11109 2.1314 1.94105 2.3434 1.94105H4.44698C4.98815 1.94105 5.42666 1.50664 5.42666 0.970526C5.42666 0.434407 4.98815 0 4.44698 0H0.979683C0.438506 0 0 0.434407 0 0.970526V12.0295C0 12.5656 0.438506 13 0.979683 13H4.44698C4.98815 13 5.42666 12.5656 5.42666 12.0295C5.42666 11.4934 4.98815 11.0589 4.44698 11.0589Z" fill="#5B5B5B"/>
<path d="M12.6771 5.88344L8.6196 2.25057C8.21832 1.89109 7.59877 1.92214 7.23589 2.31967C6.87302 2.7172 6.90437 3.33096 7.30565 3.69044L9.47506 5.63305H4.18281C3.64163 5.63305 3.20312 6.06745 3.20312 6.60357C3.20312 7.13969 3.64163 7.5741 4.18281 7.5741H9.47545L7.30604 9.5167C6.90476 9.87619 6.87341 10.4899 7.23628 10.8875C7.59916 11.285 8.21871 11.3161 8.61999 10.9566L12.6774 7.3237C13.1077 6.93821 13.1077 6.26893 12.6774 5.88383L12.6771 5.88344Z" fill="#5B5B5B"/>
</g>
<defs>
<clipPath id="clip0_528_3356">
<rect width="13" height="13" fill="white"/>
</clipPath>
</defs>
</svg>
