<svg width="26" height="18" viewBox="0 0 26 18" fill="none" xmlns="http://www.w3.org/2000/svg">
<g clip-path="url(#clip0_475_79)">
<path d="M11.8218 1.8132C11.1264 1.22501 10.2993 0.909009 9.43375 0.675037C7.52405 0.155824 5.56247 0.0448975 3.59225 0.0504905C3.07352 0.0514226 2.55479 0.105488 2.03125 0.134385V14.2818C2.23106 14.2818 2.40205 14.2818 2.574 14.2818C3.82184 14.2818 5.07352 14.2193 6.31655 14.293C8.62107 14.4309 10.9198 14.65 12.7133 16.4444C12.7277 16.3241 12.7402 16.2691 12.7402 16.2141C12.7402 12.0381 12.744 7.86199 12.7363 3.68591C12.7354 2.93273 12.4145 2.31377 11.8218 1.8132Z" fill="#1962EC"/>
<path d="M19.8816 14.2816C21.2361 14.2434 22.5925 14.2732 23.969 14.2732V0C22.1852 0.0885551 20.4465 0.133299 18.7154 0.274055C17.4388 0.377525 16.191 0.666494 15.0392 1.25282C13.8778 1.84381 13.2601 2.70979 13.2716 4.04371C13.3062 7.95505 13.2793 11.8673 13.2764 15.7787C13.2764 15.9884 13.2764 16.1972 13.2764 16.3137C13.9681 15.9045 14.6184 15.43 15.3418 15.1103C16.774 14.4774 18.3274 14.3254 19.8816 14.2816Z" fill="#1962EC"/>
<path d="M11.0259 15.8495C9.68396 15.1485 8.21133 14.9182 6.7243 14.8567C5.11335 14.7896 3.49568 14.8427 1.88184 14.8427C1.74544 14.8427 1.60903 14.8297 1.42843 14.8204V2.40771C0.925072 2.46458 0.471662 2.51585 0 2.56991V16.7313C4.32949 16.1608 8.52738 16.598 12.6993 18.0009C12.6417 17.7613 12.6177 17.5963 12.561 17.4425C12.2882 16.6968 11.7214 16.213 11.0259 15.8495Z" fill="#1962EC"/>
<path d="M24.5712 2.40234V14.8392C24.1485 14.8392 23.7825 14.8616 23.4194 14.8355C21.5145 14.7003 19.6154 14.7357 17.7268 15.0228C16.5491 15.2028 15.406 15.4908 14.4319 16.2039C13.8402 16.6364 13.4367 17.1864 13.3301 17.9964C17.4799 16.6075 21.6749 16.1405 26.0006 16.7278V2.55801C25.5164 2.50581 25.0755 2.45734 24.5712 2.40234Z" fill="#1962EC"/>
</g>
<defs>
<clipPath id="clip0_475_79">
<rect width="26" height="18" fill="white"/>
</clipPath>
</defs>
</svg>
