<svg width="21" height="20" viewBox="0 0 21 20" fill="none" xmlns="http://www.w3.org/2000/svg">
<path d="M20.3074 11.5643L11.6102 19.4557C10.7501 20.2366 9.42209 20.1691 8.64427 19.3056C7.86644 18.4421 7.93364 17.1089 8.79378 16.328L13.4439 12.1082L2.09996 12.1082C0.939941 12.1082 0 11.1646 0 10C0 8.83543 0.939941 7.8918 2.09996 7.8918L13.4448 7.8918L8.79462 3.67202C7.93448 2.89114 7.86728 1.55791 8.64511 0.694395C9.42293 -0.169123 10.7509 -0.236586 11.6111 0.544292L20.3083 8.43571C21.2306 9.27309 21.2306 10.7269 20.3083 11.5634L20.3074 11.5643Z" fill="white"/>
</svg>
