<svg width="38" height="24" viewBox="0 0 38 52" fill="none" xmlns="http://www.w3.org/2000/svg">
<path d="M27.8148 33.7877C26.151 34.999 25.1591 36.9499 25.1591 39.0188V39.0831H6.37777C2.86893 39.0831 0 41.9666 0 45.4933C0 49.0522 2.83694 51.9035 6.34578 51.9035L38 52V39.0295C38 33.7448 32.0488 30.7005 27.8148 33.7984V33.7877ZM9.37468 18.2659C11.0704 16.9903 12.0303 15.0179 12.0303 12.9169H22.2795L5.02329 27.4739C5.02329 27.4739 4.9593 27.5061 4.92731 27.5382C1.38647 30.5504 3.56217 36.3496 8.19085 36.3496H15.7205C16.9043 36.3496 18.0135 35.953 18.92 35.1919L31.8249 24.376C35.1844 21.5782 37.2321 17.537 37.5947 13.2278V0H0V12.456C0 17.2905 5.07662 20.4205 9.37468 18.2552V18.2659Z" fill="white"/>
</svg>
