<svg width="131" height="80" viewBox="0 0 131 80" fill="none" xmlns="http://www.w3.org/2000/svg">
<path fill-rule="evenodd" clip-rule="evenodd" d="M38.8061 60.0289C38.8061 56.846 40.336 53.8446 42.9022 51.981V51.9975C49.433 47.2315 58.6122 51.9151 58.6122 60.0454V80L9.78789 79.8516C4.37576 79.8516 0 75.4649 0 69.9897C0 64.564 4.42511 60.1278 9.83724 60.1278H38.8061V60.0289ZM18.5559 19.8722C18.5559 23.1045 17.0753 26.1389 14.4598 28.1014V28.0849C7.83031 31.4162 0 26.6007 0 19.1631V0H57.9871V20.3504C57.4278 26.98 54.2693 33.1973 49.0875 37.5015L29.1827 54.1414C27.7844 55.3123 26.0736 55.9225 24.2476 55.9225H12.6338C5.49438 55.9225 2.13853 47.0006 7.60001 42.3665C7.64936 42.3171 7.74806 42.2676 7.74806 42.2676L34.3645 19.8722H18.5559ZM82.1696 28.975H90.7895H90.806C92.2536 28.975 93.4215 30.1459 93.4215 31.5971C93.4215 33.0483 92.2536 34.2192 90.806 34.2192H73.8787V30.2943L85.0648 18.3215H76.4778C75.0302 18.3215 73.8622 17.1506 73.8622 15.6993C73.8622 14.2481 75.0302 13.0772 76.4778 13.0772H93.4051V16.9527L82.1696 28.975ZM102.305 28.1006C101.878 27.6388 101.697 27.0286 101.697 26.4184V20.9103C101.697 20.2011 101.927 19.6075 102.437 19.0797C102.898 18.618 103.506 18.3376 104.214 18.3376H110.646V31.6132C110.646 33.0645 111.814 34.2354 113.311 34.2354C114.808 34.2354 115.926 33.0645 115.926 31.6132V13.0933H104.23C102.782 13.0933 101.483 13.4726 100.315 14.1158C99.147 14.8249 98.2093 15.7979 97.5184 16.9194C96.8111 18.0902 96.4492 19.3931 96.4492 20.8443V26.4019C96.4492 27.8532 96.8275 29.156 97.5184 30.3269C98.2258 31.4978 99.147 32.4708 100.315 33.1799C101.483 33.889 102.782 34.2024 104.23 34.2024H106.928C108.376 34.2024 109.544 33.0315 109.544 31.5802C109.544 30.129 108.376 28.9581 106.928 28.9581H104.23C103.49 28.9581 102.881 28.6778 102.322 28.0676L102.305 28.1006ZM119.328 13.0933H124.593V34.2189H119.328V13.0933ZM121.978 11.3612C122.817 11.3612 123.558 11.0314 124.117 10.4707C124.726 9.86052 125.055 9.06893 125.055 8.27734C125.055 7.38681 124.726 6.64469 124.117 6.08398C123.558 5.4738 122.768 5.14397 121.978 5.14397C121.09 5.14397 120.35 5.4738 119.791 6.08398C119.182 6.64469 118.853 7.43628 118.853 8.27734C118.853 9.11841 119.182 9.86052 119.791 10.4707C120.35 11.0314 121.14 11.3612 121.978 11.3612ZM75.6862 40.6171H80.9503V48.0382H87.0534V53.3155H80.9503V62.9465C80.9503 63.2268 81.049 63.4247 81.2793 63.6556C81.4603 63.837 81.7399 63.936 82.0689 63.936H84.4542C85.9018 63.936 87.0698 65.1069 87.0698 66.6076C87.0698 68.0588 85.9018 69.2297 84.4542 69.2297H82.036C80.8681 69.2297 79.7988 68.9494 78.8611 68.3887C77.8741 67.828 77.1339 67.0859 76.5746 66.1458C75.9659 65.2058 75.6862 64.1339 75.6862 62.963V53.332H73.12V48.0547H75.6862V40.6171ZM105.857 48.9476C104.919 48.3869 103.85 48.0571 102.682 48.0571H94.3749C93.026 48.0571 91.9073 48.5188 90.9203 49.4589C89.9827 50.3494 89.5221 51.4708 89.5221 52.7736V63.0148C89.5221 64.1362 89.8017 65.1587 90.361 66.1482C90.871 67.0882 91.6277 67.8303 92.5489 68.391C93.4701 68.9518 94.5558 69.2321 95.6744 69.2321H104.952C106.4 69.2321 107.568 68.0612 107.568 66.61C107.568 65.1092 106.4 63.9383 104.952 63.9383H95.6744C95.4441 63.9383 95.2138 63.8394 95.0164 63.7075C94.8355 63.4766 94.7368 63.2457 94.7368 62.9654V53.3343H102.666C102.995 53.3343 103.225 53.4333 103.455 53.6642C103.636 53.8951 103.735 54.1259 103.735 54.4558V55.0165C103.735 55.3463 103.636 55.5772 103.455 55.8081C103.225 55.9895 102.995 56.1379 102.666 56.1379H98.471C97.0234 56.1379 95.8554 57.3088 95.8554 58.76C95.8554 60.2113 97.0234 61.3822 98.471 61.3822H102.666C103.834 61.3822 104.903 61.1018 105.841 60.4916C106.778 59.9309 107.568 59.1888 108.127 58.1993C108.687 57.2593 109.016 56.1874 109.016 55.0165V54.4558C109.016 53.2849 108.687 52.2129 108.127 51.2234C107.568 50.2834 106.778 49.4918 105.841 48.9311L105.857 48.9476ZM126.371 49.0466C126.881 48.4364 127.637 48.0571 128.378 48.0571C130.565 48.0571 131.783 50.6297 130.384 52.3119L125.252 58.6281L130.434 64.9938C131.783 66.7254 130.565 69.2486 128.427 69.2486C127.637 69.2486 126.881 68.8693 126.42 68.2591L121.847 62.652L117.323 68.2591C116.813 68.8693 116.056 69.2486 115.267 69.2486C113.112 69.2486 111.911 66.6759 113.26 64.9938L118.442 58.6281L113.309 52.3119C111.911 50.6297 113.128 48.0571 115.316 48.0571C116.106 48.0571 116.813 48.4364 117.323 49.0466L121.847 54.6537L126.371 49.0466Z" fill="white"/>
</svg>
