<svg width="11" height="13" viewBox="0 0 11 13" fill="none" xmlns="http://www.w3.org/2000/svg">
<g clip-path="url(#clip0_528_3353)">
<path d="M5.81503 0C5.96259 0.0327068 6.11198 0.0577179 6.25773 0.100044C7.53663 0.471363 8.35097 1.3429 8.62606 2.70697C8.86836 3.90558 8.53315 4.95797 7.69694 5.80835C6.9828 6.53559 6.11198 6.84535 5.12639 6.71452C4.00963 6.56638 3.16978 5.95072 2.6615 4.89063C2.11314 3.74589 2.18055 2.60115 2.83822 1.52375C3.33921 0.706083 4.06611 0.21548 4.98247 0.0480983C5.0517 0.0365547 5.12093 0.0153914 5.19015 0C5.39784 0 5.60552 0 5.81503 0Z" fill="#5B5B5B"/>
<path d="M5.49504 13.0001C4.09955 12.977 2.8334 12.5499 1.71482 11.6706C1.04804 11.1473 0.490574 10.5086 0.0588083 9.75439C-0.0067763 9.64088 -0.0177071 9.52544 0.0369468 9.40616C0.588951 8.19023 1.47799 7.4072 2.71499 7.07051C2.86073 7.0301 3.01194 7.00125 3.16315 6.98585C3.33257 6.96854 3.46739 7.06858 3.60038 7.16478C4.14874 7.56496 4.75904 7.76505 5.42217 7.78429C6.09806 7.80352 6.74297 7.64576 7.2968 7.23597C7.61561 6.99932 7.91985 6.96277 8.27693 7.05896C9.17143 7.30138 9.91654 7.78813 10.4795 8.56155C10.6635 8.81359 10.8038 9.10218 10.9604 9.37345C11.0297 9.49274 11.0169 9.60625 10.944 9.72746C10.3228 10.7895 9.49935 11.6283 8.45546 12.2132C7.76136 12.6018 7.02353 12.85 6.23834 12.9327C5.9924 12.9597 5.74463 12.977 5.49687 12.9981L5.49504 13.0001Z" fill="#5B5B5B"/>
</g>
<defs>
<clipPath id="clip0_528_3353">
<rect width="11" height="13" fill="white"/>
</clipPath>
</defs>
</svg>
