<svg width="26" height="19" viewBox="0 0 26 19" fill="none" xmlns="http://www.w3.org/2000/svg">
<path fill-rule="evenodd" clip-rule="evenodd" d="M7.32984 16.1415C9.10557 17.0435 10.9812 17.5909 12.9454 17.5998V17.6042C14.7234 17.5953 16.3538 17.1964 17.9093 16.4983C21.0202 15.1021 23.5521 12.9833 25.7366 10.4435C26.0863 10.0357 26.0908 9.55482 25.732 9.1559L25.6922 9.1117C25.1242 8.48143 24.5551 7.85006 23.9427 7.26102C22.251 5.6343 20.3776 4.24472 18.2227 3.24298C16.6785 2.52492 15.064 2.06394 13.3451 2.00632C11.5943 1.94648 9.92759 2.31437 8.33352 2.99919C5.09315 4.38656 2.48632 6.57177 0.23373 9.18693C-0.0864464 9.55925 -0.0750926 10.0468 0.251896 10.428C2.24562 12.7617 4.55271 14.732 7.32984 16.1415ZM12.9818 13.697C10.7882 13.6881 9.00112 11.9417 9.00112 9.80526L8.99885 9.80747C8.99885 7.64442 10.795 5.89581 13.0067 5.90246C15.2003 5.90911 16.9896 7.65329 16.9896 9.79196C16.9919 11.9506 15.1912 13.7058 12.9818 13.697ZM13.0016 7.84826C11.9048 7.84383 11.0033 8.71481 10.9988 9.78747H10.9965C10.9919 10.8623 11.8775 11.74 12.9766 11.7511C14.0802 11.7621 14.9907 10.8823 14.9907 9.80076C14.993 8.7281 14.1029 7.85269 13.0016 7.84826Z" fill="#333333"/>
</svg>
