<svg width="26" height="19" viewBox="0 0 26 19" fill="none" xmlns="http://www.w3.org/2000/svg">
<path d="M5.27354 19C4.76472 18.4757 4.3036 17.9984 3.85156 17.5352C9.49633 11.6925 15.1502 5.84037 20.7927 0C21.2424 0.465536 21.7013 0.942829 22.1624 1.42012C21.49 2.11372 20.7949 2.82849 20.0817 3.56676C20.1975 3.64905 20.2634 3.69608 20.3316 3.74075C22.3714 5.13031 24.1568 6.80906 25.7219 8.74644C25.9741 9.05915 26.074 9.40478 25.9491 9.79743C25.9104 9.91734 25.8514 10.0372 25.7719 10.1313C23.5072 12.9104 20.8949 15.231 17.6443 16.7005C16.0611 17.4153 14.4051 17.8009 12.6674 17.7398C11.0205 17.681 9.46453 17.2343 7.97667 16.5148C7.79041 16.4254 7.68591 16.4396 7.54054 16.5947C6.83409 17.3448 6.11401 18.0783 5.39848 18.8213C5.34623 18.8754 5.30989 18.9483 5.27354 18.9977V19ZM16.445 7.38275C16.0633 7.7801 15.7044 8.1751 15.3228 8.54189C15.0729 8.77936 14.9616 9.00507 14.9889 9.39302C15.0775 10.7026 13.9599 11.7066 12.7015 11.5185C12.6151 11.5067 12.4902 11.4973 12.4402 11.5491C11.9541 12.0311 11.4794 12.5272 11.0001 13.0233C12.1858 13.8344 14.2393 13.9308 15.7158 12.5178C17.2559 11.0436 17.2991 8.82638 16.4472 7.38745L16.445 7.38275Z" fill="#535353"/>
<path d="M4.23102 14.1589C3.69721 13.6839 3.14295 13.2442 2.65003 12.7411C1.85272 11.9276 1.0804 11.0835 0.323978 10.2277C-0.112157 9.73391 -0.100799 9.23781 0.314892 8.72995C2.47967 6.08486 4.97154 3.86768 8.03584 2.39819C9.71905 1.59173 11.484 1.14265 13.3512 1.20613C14.3053 1.23905 15.2366 1.41539 16.1543 1.68812C16.1793 1.69518 16.202 1.71399 16.302 1.76806C16.202 1.83625 16.1157 1.87622 16.0544 1.94205C15.0004 3.02831 13.9509 4.11926 12.8947 5.20081C12.8152 5.28075 12.6902 5.34423 12.5789 5.35599C10.7367 5.577 9.28292 7.0512 9.04895 8.96037C9.02623 9.14846 8.96036 9.28483 8.83088 9.41885C7.35211 10.9401 5.87788 12.4684 4.40366 13.9943C4.35595 14.0437 4.30371 14.0883 4.23102 14.1589Z" fill="#535353"/>
</svg>
