<svg width="27" height="27" viewBox="0 0 27 27" fill="none" xmlns="http://www.w3.org/2000/svg">
<g clip-path="url(#clip0_475_1078)">
<path d="M26.7239 16.4726C26.2036 14.3774 25.013 12.7226 23.221 11.5388C21.1347 10.1603 18.8491 9.79114 16.4195 10.4076C14.6565 10.8548 13.1965 11.8066 12.0461 13.2009C11.1197 14.3226 10.5229 15.6109 10.263 17.059C10.0094 18.4723 10.1058 19.8518 10.5487 21.205C11.0243 22.6578 11.8447 23.8918 13.0009 24.9001C13.9863 25.7596 15.0956 26.3845 16.3689 26.6957C16.8825 26.8212 17.4071 26.9003 17.9264 27.0005H19.0863C19.4823 26.9451 19.8846 26.9187 20.2726 26.8301C22.5999 26.3002 24.4431 25.0567 25.7111 23.0227C26.9781 20.9909 27.3002 18.7908 26.7245 16.4731L26.7239 16.4726ZM21.3055 22.9209C20.793 23.3961 20.174 23.6292 19.4955 23.732C19.3953 23.7473 19.2972 23.7747 19.1849 23.7995V25.2998H17.9369V23.7863C16.1733 23.5986 15.2111 22.5655 14.8336 20.8791C15.4742 20.7087 16.119 20.5374 16.7064 20.3813C16.9099 20.7731 17.0549 21.1807 17.3053 21.5071C17.7503 22.0862 18.886 22.2169 19.4971 21.8146C20.1419 21.3901 20.3058 20.2536 19.3863 19.8423C18.7341 19.5502 18.0587 19.3102 17.3997 19.0328C16.7422 18.756 16.0985 18.4507 15.6893 17.8221C15.102 16.9198 15.0361 15.9505 15.3925 14.9596C15.8174 13.7789 16.593 13.1936 17.9148 13.0037V11.8272H19.1918C19.1918 12.1526 19.1992 12.4669 19.1886 12.7807C19.1833 12.942 19.2271 13.0064 19.3995 13.0338C20.8162 13.2595 21.6445 14.1955 21.9461 15.4221C21.6645 15.5397 21.3777 15.6594 21.0909 15.7786C20.8025 15.8983 20.5141 16.0175 20.2716 16.1177C20.0464 15.7617 19.8724 15.3915 19.613 15.0957C18.9661 14.3585 17.783 14.5541 17.4862 15.4253C17.3311 15.8793 17.4651 16.4483 17.9406 16.6582C18.6018 16.9504 19.2719 17.2225 19.9352 17.5104C20.5278 17.7677 21.1194 18.0224 21.5691 18.5197C22.0589 19.0613 22.2825 19.7015 22.2951 20.4145C22.312 21.3816 22.0362 22.2433 21.305 22.9215L21.3055 22.9209Z" fill="white"/>
<path d="M1.40645 7.63646C2.5785 8.61521 3.96515 9.1568 5.41928 9.54492C6.57973 9.85447 7.76444 10.019 8.96392 10.0934C10.3706 10.1809 11.7709 10.1118 13.1602 9.89613C14.4636 9.69363 15.7379 9.36193 16.94 8.80137C18.0056 8.30461 19.0005 7.70766 19.6864 6.7115C20.3059 5.81238 20.4346 4.86211 19.9485 3.86016C19.4882 2.91252 18.7015 2.28604 17.8184 1.7782C16.0606 0.767285 14.1325 0.313242 12.1358 0.102832C11.7815 0.0653906 11.4261 0.0342773 11.0713 0H9.11998C8.66181 0.0511523 8.20416 0.107051 7.74546 0.153457C6.4358 0.28582 5.16462 0.582715 3.93826 1.05943C2.59907 1.57992 1.35794 2.25281 0.513828 3.4715C0.0430021 4.1502 -0.108316 4.90535 0.0925628 5.71904C0.291333 6.52219 0.792211 7.12389 1.40645 7.63646ZM5.64283 6.20525C6.36462 6.12615 7.08694 6.04863 7.80926 5.97586C7.85249 5.97164 7.92314 5.99537 7.94212 6.02807C8.23474 6.53379 8.74142 6.65086 9.25232 6.73734C9.93246 6.8523 10.6152 6.81908 11.2912 6.69041C11.434 6.66299 11.588 6.61025 11.6982 6.52113C11.8026 6.43728 11.9202 6.28646 11.9138 6.17203C11.9075 6.05971 11.7709 5.89728 11.6576 5.85984C11.3028 5.7433 10.9347 5.66104 10.5667 5.59248C9.48641 5.39156 8.39924 5.22176 7.32314 4.99975C6.99889 4.93277 6.68096 4.76666 6.39625 4.58894C5.74986 4.18605 5.74986 3.52424 6.36198 3.06703C6.86075 2.69473 7.43597 2.52809 8.03439 2.43C8.45618 2.36092 8.88272 2.31926 9.32929 2.26283V1.68697H10.9158V2.26283C12.1595 2.41312 13.4249 2.44266 14.4024 3.48363C13.9564 3.55852 13.5725 3.62443 13.1882 3.68771C12.9298 3.73043 12.6662 3.75205 12.4131 3.81533C12.2639 3.85277 12.1738 3.82746 12.0678 3.72146C11.7741 3.42932 11.4072 3.27111 11.0038 3.19359C10.3664 3.07125 9.73158 3.05437 9.11049 3.27639C8.91014 3.34811 8.69081 3.44672 8.70768 3.69932C8.72402 3.93662 8.94441 4.01625 9.14265 4.0558C9.81014 4.18869 10.4818 4.29732 11.1493 4.43074C11.9961 4.59949 12.8434 4.76666 13.6822 4.97021C13.9358 5.03191 14.1767 5.19012 14.3961 5.34357C14.897 5.6932 14.9275 6.25957 14.4899 6.68725C14.0455 7.12178 13.4813 7.31531 12.894 7.42236C12.3103 7.52889 11.7156 7.57371 11.1256 7.64701C11.0586 7.65545 10.9922 7.66916 10.9094 7.68287V8.42115H9.33088V7.68445C7.91365 7.53996 6.47587 7.51728 5.44037 6.26273C5.53791 6.23426 5.58905 6.21053 5.6423 6.20473L5.64283 6.20525Z" fill="white"/>
<path d="M11.881 24.965C11.5183 24.5225 11.1497 24.4054 10.5856 24.4371C8.72124 24.541 6.88117 24.3074 5.07854 23.8212C3.66026 23.4383 2.3179 22.8783 1.14321 21.9749C0.799977 21.7112 0.491541 21.4028 0.166233 21.1138C-0.0262098 21.5567 -0.0467722 22.0688 0.0797656 22.5539C0.342332 23.5638 1.00929 24.272 1.83126 24.8379C3.71825 26.1367 5.86992 26.6551 8.10859 26.894C8.46289 26.932 8.81773 26.9646 9.17256 27H11.1239C11.4787 26.9652 11.8346 26.9393 12.1879 26.8929C12.7652 26.8175 13.3409 26.7289 13.9836 26.6361C13.865 26.5549 13.8112 26.5138 13.7532 26.4784C13.0583 26.0608 12.3929 25.5893 11.881 24.965Z" fill="white"/>
<path d="M10.8945 13.3367C11.3748 12.6733 11.8947 12.0463 12.5363 11.5311C12.9022 11.2374 13.2797 10.9574 13.6261 10.6911C12.8548 10.7654 12.0645 10.8561 11.2715 10.9152C9.11982 11.076 7.00136 10.8561 4.92509 10.2776C3.57008 9.90004 2.28414 9.35846 1.16112 8.48939C0.811028 8.21834 0.495211 7.90352 0.107161 7.55811C0.0723634 7.9283 0.00329489 8.25631 0.0175304 8.58062C0.0623459 9.60209 0.637038 10.3467 1.37043 10.9827C2.27043 11.7631 3.33335 12.2594 4.45057 12.6327C6.45514 13.303 8.52562 13.5413 10.6325 13.4944C10.7226 13.4923 10.8386 13.4143 10.8945 13.3367Z" fill="white"/>
<path d="M8.01122 20.975C6.92827 20.7915 5.84057 20.6101 4.77818 20.3369C3.37889 19.9778 2.08451 19.3645 0.952524 18.4469C0.679413 18.2254 0.432664 17.9712 0.160608 17.7202C-0.0244533 18.2196 -0.0444885 18.6969 0.0841583 19.1862C0.351469 20.2045 1.03425 20.9059 1.86254 21.4812C3.38627 22.5396 5.11614 23.0638 6.92458 23.3549C7.60578 23.4646 8.29541 23.5352 8.98451 23.5785C9.56711 23.6149 10.1539 23.5859 10.7755 23.5859C10.2947 22.8291 9.93091 22.0402 9.6694 21.2028C9.64989 21.1411 9.53126 21.0778 9.45481 21.0715C8.97397 21.033 8.48469 21.0541 8.01175 20.9739L8.01122 20.975Z" fill="white"/>
<path d="M10.2819 14.3656C9.80417 14.3403 9.3576 14.3134 8.9105 14.2944C7.50593 14.2343 6.12878 14.008 4.78062 13.6083C3.48941 13.2255 2.25936 12.7108 1.1859 11.8786C0.828955 11.6018 0.502593 11.2848 0.10189 10.9331C0.0692008 11.3286 -0.0019767 11.683 0.0196402 12.0321C0.0660374 12.7915 0.439851 13.4132 0.953911 13.9527C1.86393 14.9077 3.00751 15.4846 4.22755 15.9223C5.85303 16.5061 7.54126 16.765 9.25953 16.8599C9.40084 16.8678 9.44987 16.8341 9.49363 16.6943C9.70716 16.0135 9.93757 15.338 10.1643 14.6614C10.198 14.5607 10.2428 14.4631 10.2819 14.3651V14.3656Z" fill="white"/>
<path d="M1.69461 17.9832C2.65683 18.7062 3.74716 19.1613 4.88811 19.5152C5.9099 19.8321 6.95806 20.013 8.01676 20.139C8.48231 20.1944 8.95366 20.2071 9.38389 20.2361C9.34488 19.3775 9.30744 18.5417 9.26895 17.6848C9.26052 17.6832 9.21043 17.6737 9.15981 17.6679C8.13644 17.544 7.10463 17.467 6.09127 17.2861C4.56175 17.0129 3.09971 16.5104 1.78793 15.6592C1.21113 15.2854 0.691273 14.8239 0.141361 14.3994C-0.0131208 14.8361 -0.0489731 15.317 0.0833643 15.8148C0.333276 16.754 0.945403 17.42 1.69514 17.9838L1.69461 17.9832Z" fill="white"/>
<path d="M17.9375 9.27963C18.5665 9.306 19.311 9.33764 20.0639 9.3698C20.2853 8.78393 20.3106 8.1991 20.1124 7.66016C19.3505 8.22758 18.5992 8.78709 17.9375 9.27963Z" fill="white"/>
</g>
<defs>
<clipPath id="clip0_475_1078">
<rect width="27" height="27" fill="white"/>
</clipPath>
</defs>
</svg>
