<svg width="41" height="25" viewBox="0 0 41 25" fill="none" xmlns="http://www.w3.org/2000/svg">
<path fill-rule="evenodd" clip-rule="evenodd" d="M12.1454 18.759C12.1454 17.7644 12.6242 16.8264 13.4274 16.2441V16.2492C15.4714 14.7598 18.3443 16.2235 18.3443 18.7642V25L3.06339 24.9536C1.36951 24.9536 0 23.5828 0 21.8718C0 20.1763 1.38496 18.7899 3.07883 18.7899H12.1454V18.759ZM5.80756 6.21006C5.80756 7.22016 5.34419 8.16842 4.52557 8.7817V8.77654C2.45071 9.81756 0 8.31272 0 5.98846V0H18.1486V6.35951C17.9736 8.43125 16.9851 10.3742 15.3633 11.7192L9.13352 16.9192C8.6959 17.2851 8.16045 17.4758 7.58896 17.4758H3.95408C1.71961 17.4758 0.669311 14.6877 2.37863 13.2395C2.39407 13.2241 2.42497 13.2086 2.42497 13.2086L10.7553 6.21006H5.80756ZM25.7172 9.05468H28.415H28.4202C28.8733 9.05468 29.2388 9.42058 29.2388 9.87409C29.2388 10.3276 28.8733 10.6935 28.4202 10.6935H23.1223V9.46696L26.6233 5.72546H23.9358C23.4827 5.72546 23.1172 5.35956 23.1172 4.90605C23.1172 4.45253 23.4827 4.08663 23.9358 4.08663H29.2337V5.29772L25.7172 9.05468ZM32.0193 8.78142C31.8854 8.63712 31.8288 8.44644 31.8288 8.25576V6.53446C31.8288 6.31286 31.9008 6.12733 32.0604 5.96242C32.2046 5.81812 32.3951 5.7305 32.6165 5.7305H34.6296V9.87913C34.6296 10.3326 34.9951 10.6986 35.4636 10.6986C35.9322 10.6986 36.2823 10.3326 36.2823 9.87913V4.09167H32.6216C32.1686 4.09167 31.7618 4.2102 31.3963 4.41119C31.0307 4.63279 30.7373 4.93685 30.521 5.2873C30.2996 5.6532 30.1864 6.06033 30.1864 6.51385V8.2506C30.1864 8.70412 30.3048 9.11125 30.521 9.47715C30.7424 9.84306 31.0307 10.1471 31.3963 10.3687C31.7618 10.5903 32.1686 10.6882 32.6216 10.6882H33.466C33.9191 10.6882 34.2846 10.3223 34.2846 9.86883C34.2846 9.41531 33.9191 9.04941 33.466 9.04941H32.6216C32.39 9.04941 32.1995 8.9618 32.0244 8.77111L32.0193 8.78142ZM37.3471 4.09167H38.9946V10.6934H37.3471V4.09167ZM38.1765 3.55039C38.4391 3.55039 38.6707 3.44732 38.8458 3.2721C39.0363 3.08141 39.1393 2.83404 39.1393 2.58667C39.1393 2.30838 39.0363 2.07647 38.8458 1.90124C38.6707 1.71056 38.4236 1.60749 38.1765 1.60749C37.8985 1.60749 37.6668 1.71056 37.4917 1.90124C37.3012 2.07647 37.1982 2.32384 37.1982 2.58667C37.1982 2.8495 37.3012 3.08141 37.4917 3.2721C37.6668 3.44732 37.9139 3.55039 38.1765 3.55039ZM23.6881 12.6928H25.3356V15.0119H27.2457V16.6611H25.3356V19.6708C25.3356 19.7584 25.3665 19.8202 25.4386 19.8924C25.4952 19.9491 25.5827 19.98 25.6857 19.98H26.4322C26.8853 19.98 27.2509 20.3459 27.2509 20.8149C27.2509 21.2684 26.8853 21.6343 26.4322 21.6343H25.6754C25.3099 21.6343 24.9752 21.5467 24.6817 21.3715C24.3728 21.1962 24.1411 20.9643 23.9661 20.6706C23.7756 20.3768 23.6881 20.0418 23.6881 19.6759V16.6662H22.8849V15.0171H23.6881V12.6928ZM33.1309 15.2961C32.8374 15.1209 32.5027 15.0178 32.1372 15.0178H29.5372C29.115 15.0178 28.7649 15.1621 28.456 15.4559C28.1625 15.7342 28.0184 16.0846 28.0184 16.4918V19.6921C28.0184 20.0426 28.1059 20.3621 28.2809 20.6713C28.4405 20.9651 28.6774 21.197 28.9657 21.3722C29.254 21.5474 29.5938 21.635 29.9439 21.635H32.8477C33.3008 21.635 33.6663 21.2691 33.6663 20.8156C33.6663 20.3466 33.3008 19.9807 32.8477 19.9807H29.9439C29.8718 19.9807 29.7997 19.9498 29.738 19.9086C29.6813 19.8364 29.6504 19.7643 29.6504 19.6767V16.667H32.132C32.235 16.667 32.3071 16.6979 32.3792 16.7701C32.4358 16.8422 32.4667 16.9144 32.4667 17.0174V17.1926C32.4667 17.2957 32.4358 17.3679 32.3792 17.44C32.3071 17.4967 32.235 17.5431 32.132 17.5431H30.8192C30.3661 17.5431 30.0005 17.909 30.0005 18.3625C30.0005 18.816 30.3661 19.1819 30.8192 19.1819H32.132C32.4976 19.1819 32.8322 19.0943 33.1257 18.9036C33.4192 18.7284 33.6663 18.4965 33.8414 18.1873C34.0164 17.8935 34.1194 17.5586 34.1194 17.1926V17.0174C34.1194 16.6515 34.0164 16.3165 33.8414 16.0073C33.6663 15.7136 33.4192 15.4662 33.1257 15.291L33.1309 15.2961ZM39.5511 15.3271C39.7107 15.1364 39.9475 15.0178 40.1792 15.0178C40.864 15.0178 41.245 15.8218 40.8073 16.3475L39.201 18.3213L40.8228 20.3106C41.245 20.8517 40.864 21.6402 40.1947 21.6402C39.9475 21.6402 39.7107 21.5217 39.5665 21.331L38.1352 19.5788L36.7194 21.331C36.5598 21.5217 36.323 21.6402 36.0758 21.6402C35.4014 21.6402 35.0255 20.8362 35.4477 20.3106L37.0695 18.3213L35.4632 16.3475C35.0255 15.8218 35.4065 15.0178 36.0913 15.0178C36.3384 15.0178 36.5598 15.1364 36.7194 15.3271L38.1352 17.0793L39.5511 15.3271Z" fill="#74A4FF"/>
</svg>
