<svg version="1.1" xmlns="http://www.w3.org/2000/svg" xmlns:xlink="http://www.w3.org/1999/xlink" x="0px" y="0px"
	width="60px" viewBox="0 0 612 601" enable-background="new 0 0 612 601" xml:space="preserve">
<!--
<path fill="#000000" opacity="1.000000" stroke="none" 
	d="
M570.000000,602.000000 
	C380.000000,602.000000 190.500000,602.000000 1.000000,602.000000 
	C1.000000,401.666656 1.000000,201.333328 1.000000,1.000000 
	C205.000000,1.000000 409.000000,1.000000 613.000000,1.000000 
	C613.000000,201.333328 613.000000,401.666656 613.000000,602.000000 
	C598.833313,602.000000 584.666687,602.000000 570.000000,602.000000 
M328.639526,272.928497 
	C323.260742,268.625305 317.835022,264.378998 312.520721,259.997620 
	C309.301880,257.343842 306.461700,257.606934 303.270325,260.165161 
	C288.960632,271.635864 274.529053,282.954529 260.217865,294.423431 
	C257.705963,296.436462 257.234741,299.308197 259.470062,301.754242 
	C261.250244,303.702240 263.525055,305.255829 266.206177,302.457581 
	C267.372162,301.240723 269.066772,300.530365 271.000061,299.280396 
	C271.000061,301.398865 271.000000,303.014160 271.000061,304.629425 
	C271.000366,316.962036 271.036072,329.294861 270.974426,341.627167 
	C270.960297,344.454803 271.685760,346.852020 274.811737,346.916321 
	C283.748230,347.100189 292.690979,346.980957 302.163818,346.980957 
	C302.163818,338.688812 302.163818,330.954407 302.163818,323.237915 
	C306.316040,323.237915 309.918945,323.237915 314.061920,323.237915 
	C314.061920,331.192719 314.061920,338.923737 314.061920,346.999390 
	C322.908234,346.999390 331.211975,346.907288 339.512177,347.038513 
	C343.615875,347.103394 345.108337,345.270355 345.041931,341.304199 
	C344.902405,332.973663 344.999847,324.639191 344.999939,316.306335 
	C345.000000,310.757080 344.999939,305.207825 344.999939,298.995575 
	C346.762451,300.368195 347.786011,301.154022 348.797455,301.955170 
	C351.753998,304.296997 354.700989,305.216705 357.079193,301.336884 
	C359.193817,297.887115 357.259216,295.882996 354.486450,293.697693 
	C345.973785,286.988617 337.707336,279.967163 328.639526,272.928497 
z"/>-->
<path className="Hola" fill="#1962EC" opacity="1.000000" stroke="none" 
	d="
M328.992371,272.997803 
	C337.707336,279.967163 345.973785,286.988617 354.486450,293.697693 
	C357.259216,295.882996 359.193817,297.887115 357.079193,301.336884 
	C354.700989,305.216705 351.753998,304.296997 348.797455,301.955170 
	C347.786011,301.154022 346.762451,300.368195 344.999939,298.995575 
	C344.999939,305.207825 345.000000,310.757080 344.999939,316.306335 
	C344.999847,324.639191 344.902405,332.973663 345.041931,341.304199 
	C345.108337,345.270355 343.615875,347.103394 339.512177,347.038513 
	C331.211975,346.907288 322.908234,346.999390 314.061920,346.999390 
	C314.061920,338.923737 314.061920,331.192719 314.061920,323.237915 
	C309.918945,323.237915 306.316040,323.237915 302.163818,323.237915 
	C302.163818,330.954407 302.163818,338.688812 302.163818,346.980957 
	C292.690979,346.980957 283.748230,347.100189 274.811737,346.916321 
	C271.685760,346.852020 270.960297,344.454803 270.974426,341.627167 
	C271.036072,329.294861 271.000366,316.962036 271.000061,304.629425 
	C271.000000,303.014160 271.000061,301.398865 271.000061,299.280396 
	C269.066772,300.530365 267.372162,301.240723 266.206177,302.457581 
	C263.525055,305.255829 261.250244,303.702240 259.470062,301.754242 
	C257.234741,299.308197 257.705963,296.436462 260.217865,294.423431 
	C274.529053,282.954529 288.960632,271.635864 303.270325,260.165161 
	C306.461700,257.606934 309.301880,257.343842 312.520721,259.997620 
	C317.835022,264.378998 323.260742,268.625305 328.992371,272.997803 
M322.650970,280.931793 
	C317.765015,276.853333 312.879059,272.774902 308.190948,268.861572 
	C300.574219,274.928131 293.419952,280.678070 286.205933,286.352020 
	C282.110931,289.572815 279.019196,292.795624 279.815125,298.932739 
	C280.643829,305.322632 279.999939,311.903503 279.999939,318.400848 
	C279.999939,324.502167 279.999939,330.603485 279.999939,336.615234 
	C284.370483,336.615234 288.088074,336.615234 291.999756,336.615234 
	C291.999756,331.242737 291.934509,326.253174 292.017578,321.266083 
	C292.105652,315.979614 295.075958,313.025177 300.190033,313.004913 
	C305.854309,312.982483 311.527802,312.822784 317.177551,313.110565 
	C318.856384,313.196106 321.341858,314.187592 321.929871,315.466461 
	C323.158691,318.138947 323.693176,321.254425 323.921234,324.233246 
	C324.234680,328.326630 323.999664,332.462036 323.999664,336.676971 
	C328.249329,336.676971 331.966553,336.676971 335.996124,336.676971 
	C335.996124,322.053101 336.057617,307.750305 335.898163,293.449982 
	C335.882721,292.065277 334.797729,290.358002 333.694519,289.382629 
	C330.385590,286.457184 326.821533,283.820343 322.650970,280.931793 
z"/>
<!--
<path fill="#000000" opacity="1.000000" stroke="none" 
	d="
M323.003998,281.001343 
	C326.821533,283.820343 330.385590,286.457184 333.694519,289.382629 
	C334.797729,290.358002 335.882721,292.065277 335.898163,293.449982 
	C336.057617,307.750305 335.996124,322.053101 335.996124,336.676971 
	C331.966553,336.676971 328.249329,336.676971 323.999664,336.676971 
	C323.999664,332.462036 324.234680,328.326630 323.921234,324.233246 
	C323.693176,321.254425 323.158691,318.138947 321.929871,315.466461 
	C321.341858,314.187592 318.856384,313.196106 317.177551,313.110565 
	C311.527802,312.822784 305.854309,312.982483 300.190033,313.004913 
	C295.075958,313.025177 292.105652,315.979614 292.017578,321.266083 
	C291.934509,326.253174 291.999756,331.242737 291.999756,336.615234 
	C288.088074,336.615234 284.370483,336.615234 279.999939,336.615234 
	C279.999939,330.603485 279.999939,324.502167 279.999939,318.400848 
	C279.999939,311.903503 280.643829,305.322632 279.815125,298.932739 
	C279.019196,292.795624 282.110931,289.572815 286.205933,286.352020 
	C293.419952,280.678070 300.574219,274.928131 308.190948,268.861572 
	C312.879059,272.774902 317.765015,276.853333 323.003998,281.001343 
z"/>
-->
</svg>